<?xml version="1.0" standalone="no"?>
<!DOCTYPE svg PUBLIC "-//W3C//DTD SVG 1.1//EN" "http://www.w3.org/Graphics/SVG/1.1/DTD/svg11.dtd" >
<svg xmlns="http://www.w3.org/2000/svg">
<metadata></metadata>
<defs>
<font id="rosarivoitalic" horiz-adv-x="1234" >
<font-face units-per-em="2048" ascent="1638" descent="-410" />
<missing-glyph horiz-adv-x="546" />
<glyph horiz-adv-x="2048" />
<glyph horiz-adv-x="2048" />
<glyph unicode="&#xd;" horiz-adv-x="2048" />
<glyph unicode=" "  horiz-adv-x="546" />
<glyph unicode="&#x09;" horiz-adv-x="546" />
<glyph unicode="&#xa0;" horiz-adv-x="546" />
<glyph unicode="!" horiz-adv-x="475" d="M74 106q26 43 60 71.5t89 49.5q36 -34 58 -75t22 -76q0 -34 -53.5 -76.5t-99.5 -42.5q-32 95 -76 149zM162 1423q5 4 137 79.5t135 78.5q10 -1 18 -5.5t10 -8.5l3 -4q-9 -43 -37 -172t-47.5 -225.5t-50 -292.5t-58.5 -429q-2 -17 -21.5 -33.5t-53.5 -19.5q3 203 21 424 t35 367.5t17 175.5q0 28 -26 28q-7 0 -21 -4.5t-25 -9.5l-10 -4q-10 7 -16.5 21t-7.5 24z" />
<glyph unicode="&#x22;" horiz-adv-x="636" d="M221 1174l31 546q30 15 76 15q22 0 59 -15l-100 -546q-17 -5 -35 -5q-11 0 -31 5zM530 1174l29 546q35 15 78 15q16 0 59 -15l-104 -546q-13 -5 -33 -5q-9 0 -29 5z" />
<glyph unicode="#" horiz-adv-x="1196" d="M137 276q32 89 33 91h182l43 282q-79 -3 -213 -16q-12 8 -12 31q2 6 14 37t19 53h207l41 256q53 9 92 28q10 0 17.5 -5t9.5 -10l3 -5q-40 -146 -63 -264h250l41 256q61 14 92 28q10 0 18 -5t11 -10l2 -5q-20 -63 -64 -262q117 8 187 16q12 -8 12 -33q-5 -10 -33 -92h-182 l-43 -278q78 3 209 16q14 -6 14 -33q-16 -34 -33 -92h-207l-47 -299q-51 -10 -90 -27q-8 0 -14.5 5t-8.5 9l-3 5q34 120 65 309h-252l-43 -301q-56 -11 -94 -27q-8 0 -14.5 5t-9.5 9l-3 5q34 113 66 307q-64 0 -186 -14q-13 5 -13 30zM451 367h251l43 282h-247z" />
<glyph unicode="$" horiz-adv-x="866" d="M41 33l88 278q28 0 49 -14q-6 -24 -6 -125q0 -47 2 -63q41 -58 154 -70l49 430q-51 42 -80 69t-64.5 67.5t-52 81.5t-16.5 85q0 120 84.5 192t212.5 85l22 155q49 12 68 23q10 0 20 -15q-20 -83 -36 -161q62 -1 132.5 -17t118.5 -37q-35 -99 -59 -249q-12 -3 -25 -3 q-20 0 -24 7l-16 176q-46 34 -138 47l-43 -377q47 -42 72 -65t64 -63.5t58.5 -70t35.5 -66.5t16 -71q0 -122 -97 -206t-237 -95l-24 -201q-11 -3 -66 -22q-6 0 -11.5 3.5t-7.5 6.5l-3 4q20 109 32 209q-77 6 -156.5 27t-115.5 45zM311 834q0 -69 101 -170l41 317 q-73 -4 -107.5 -44t-34.5 -103zM401 35q63 9 106.5 58t43.5 120q0 95 -107 195z" />
<glyph unicode="%" horiz-adv-x="1288" d="M190 698q0 140 73 242.5t218 124.5q85 0 133 -62t48 -159q0 -139 -73.5 -240.5t-217.5 -122.5q-87 0 -134 60t-47 157zM197 -25l391 500q75 95 226 298t210 298q8 2 18 2q9 0 9 -6q22 -53 47 -92l-434 -557q-2 -3 -39.5 -51t-68 -88t-78.5 -103t-83.5 -112t-69 -98.5 t-49.5 -78.5q-12 -2 -20 -2l-8 6q-9 19 -28.5 49t-22.5 35zM276 760q0 -56 37 -95.5t99 -39.5q51 0 87 17.5t52.5 44.5t23.5 51t7 46q0 58 -38.5 97t-103.5 39q-90 0 -127 -42.5t-37 -117.5zM629 104q0 140 72 242t217 123q85 0 132.5 -61.5t47.5 -159.5q0 -138 -73 -239.5 t-216 -123.5q-88 0 -134 60t-46 159zM713 164q0 -56 36.5 -94.5t100.5 -38.5q50 0 86 17t52.5 44t23 50.5t6.5 45.5q0 58 -38 98t-103 40q-90 0 -127 -43.5t-37 -118.5z" />
<glyph unicode="&#x26;" horiz-adv-x="1574" d="M88 473q0 200 96.5 365.5t272.5 253.5q47 0 87.5 -9.5t76.5 -30.5t56.5 -61t20.5 -96q0 -84 -63 -152t-166 -112h733q133 0 211 25.5t78 66.5q0 18 -18.5 50.5t-47.5 64.5q11 24 36 41.5t44 23.5l19 6q51 -71 51 -137q0 -32 -25.5 -73t-69 -78.5t-110 -63t-139.5 -25.5 l-51 -319q-35 -239 -35 -326q0 -31 7 -45t30 -14q72 0 211 51q16 -26 16 -59q-99 -40 -165.5 -72.5t-103.5 -55t-126 -79.5l-33 12q-8 33 -8 107q0 148 59 506q-233 -279 -522 -279q-187 0 -304.5 147.5t-117.5 366.5zM248 530q0 -110 39 -210t113.5 -165t164.5 -65 q83 0 160.5 28t136 74t105.5 104t75 118.5t37 117.5q-544 0 -831 19v-21zM252 616q112 12 203.5 84t91.5 158q0 62 -33.5 105t-85.5 43q-36 0 -73.5 -56t-65 -146.5t-37.5 -187.5z" />
<glyph unicode="'" horiz-adv-x="327" d="M221 1174l31 546q30 15 76 15q22 0 59 -15l-100 -546q-17 -5 -35 -5q-11 0 -31 5z" />
<glyph unicode="(" horiz-adv-x="653" d="M150 555q0 364 114.5 697t343.5 599q48 0 62 -41q-344 -523 -344 -1351q0 -449 155 -772q-13 -41 -65 -41q-266 402 -266 909z" />
<glyph unicode=")" horiz-adv-x="653" d="M-16 -313q177 278 260.5 629t83.5 731q0 427 -158 763q6 14 11 21.5t19 13.5t36 6q266 -408 266 -919q0 -746 -461 -1286q-42 0 -57 41z" />
<glyph unicode="*" horiz-adv-x="952" d="M164 1286q0 12 8 23q143 14 303 82l-231 157q33 77 49 138q4 4 8.5 6t6.5 2h3q80 -138 199 -244l31 319q74 10 129 33q4 -3 7 -7t4 -7l1 -2q-83 -171 -109 -334l263 160q50 -81 79 -107q0 -5 -2 -10.5t-4 -8.5l-2 -3q-169 -22 -307 -90l229 -164q-41 -93 -51 -137l-16 -5 q-80 137 -197 248l-30 -319q-75 -10 -127 -33l-15 16q71 142 113 336l-266 -155q-47 77 -76 106z" />
<glyph unicode="+" horiz-adv-x="1048" d="M104 500q23 60 33 98h336q18 191 21 424q7 18 30 18q14 -7 29.5 -11.5t37 -8.5t30.5 -6l-39 -416q177 0 350 18q12 -7 12 -32q-7 -15 -12.5 -30t-11 -36t-9.5 -33h-338q-22 -224 -24 -417q-7 -19 -27 -19q-23 10 -96 27l39 409q-174 0 -348 -16q-13 6 -13 31z" />
<glyph unicode="," horiz-adv-x="352" d="M-43 -244q61 49 110.5 104t49.5 97q0 55 -84 147q32 47 68 77t89 46q43 -55 60.5 -88.5t17.5 -66.5q0 -56 -20 -105.5t-61.5 -94t-88 -80.5t-114.5 -79q-27 13 -27 43z" />
<glyph unicode="-" horiz-adv-x="710" d="M49 465q22 49 35 98h293q124 0 252 19q16 -8 16 -33q-29 -57 -37 -96h-291q-123 0 -251 -19q-17 8 -17 31z" />
<glyph unicode="." horiz-adv-x="350" d="M33 104q26 44 60 73t89 50q36 -34 58 -75t22 -76q0 -34 -53.5 -76.5t-99.5 -42.5q-33 96 -76 147z" />
<glyph unicode="/" horiz-adv-x="739" d="M14 -147l406 1114q3 9 44 120.5t74.5 206t77 218t75.5 223.5t46 155q15 11 35 11q13 -11 28.5 -21.5t37.5 -24t30 -18.5l-336 -905q-343 -936 -391 -1131q-12 -12 -35 -12q-23 21 -92 64z" />
<glyph unicode="0" horiz-adv-x="1112" d="M115 434q0 124 29 230.5t87 193.5t155.5 143.5t225.5 71.5q182 0 283.5 -134.5t101.5 -348.5q0 -126 -29.5 -232.5t-88.5 -191.5t-155.5 -139t-223.5 -68q-184 0 -284.5 131t-100.5 344zM213 506q0 -94 42 -178t125 -139.5t187 -55.5q88 0 154 33t102.5 89.5t54 121.5 t17.5 139q0 153 -94.5 266t-241.5 113q-175 0 -260.5 -96.5t-85.5 -292.5z" />
<glyph unicode="1" horiz-adv-x="712" d="M41 16l2 19q96 24 145 46t66 56q29 63 57 420l23 293l-201 -29q-16 16 -16 49q0 13 4 21q233 79 373 190q15 -4 25 -13.5t13 -17.5l3 -8q-38 -83 -52 -168.5t-34 -322.5l-23 -262q-10 -98 -10 -223q60 -7 157 -7q2 -10 2 -26q0 -23 -8 -39q-52 0 -124.5 3t-90.5 3 q-171 0 -305 -16q-6 14 -6 32z" />
<glyph unicode="2" horiz-adv-x="899" d="M-14 31l243 239q9 8 54 50.5t66.5 64.5t63.5 66t65.5 77.5t50.5 76t39 83.5t12 80q0 79 -54 133.5t-131 54.5q-72 0 -176 -55l-53 -211q-12 -4 -29 -4q-14 0 -22 4q0 49 -2.5 103t-4.5 89t-2 36q0 23 31 38q110 48 314 117q59 0 109.5 -13.5t93 -41.5t67 -77.5 t24.5 -115.5q0 -93 -49.5 -176t-140.5 -172l-358 -346h194q113 0 175 7t87.5 19.5t42.5 37.5q7 11 18 29.5t25 41.5t21 35q28 0 49 -16q-52 -148 -72 -269q-26 -13 -61.5 -17.5t-118.5 -4.5q-41 0 -164.5 3t-132.5 3q-194 0 -262 -14q-12 16 -12 45z" />
<glyph unicode="3" horiz-adv-x="866" d="M0 -559q202 98 301 165q254 174 254 369q0 67 -20.5 124.5t-61 104.5t-80.5 81t-98 73l162 152q47 43 78 77.5t60.5 94t29.5 119.5q0 151 -191 151q-16 0 -32 -1.5t-28 -3t-28.5 -5.5t-25 -6t-26.5 -8.5t-24 -8.5t-26 -10l-25 -10l-53 -211q-12 -6 -29 -6q-14 0 -22 6 q0 48 -2.5 101.5t-4.5 88.5t-2 37q0 21 33 37q37 20 89.5 40t80.5 29t100.5 29.5t79.5 22.5q304 0 304 -215q0 -46 -14.5 -87.5t-51 -88.5t-65.5 -78t-89 -90l-75 -74q108 -83 166.5 -176.5t58.5 -212.5q0 -60 -14 -115.5t-37 -101.5t-60.5 -90t-75 -78t-92 -69t-99 -59.5 t-108.5 -53.5t-109 -48t-110 -44q-18 18 -18 49z" />
<glyph unicode="4" horiz-adv-x="1001" d="M-27 33q11 13 42.5 48.5t41.5 49.5l449 588q62 80 126 170t97 140l33 50q31 -4 51 -20q-16 -56 -28.5 -140.5t-18.5 -149t-23 -245.5l-36 -399q72 3 110 16t53 41l41 82q32 0 50 -16q-39 -108 -60 -234q-52 -22 -205 -22q-13 -139 -34 -531q-64 -4 -146 -65q-23 0 -35 12 q43 149 66 397l16 189q-191 6 -315 6q-178 0 -264 -14q-11 18 -11 47zM147 123h426l56 631z" />
<glyph unicode="5" horiz-adv-x="870" d="M0 -582q48 30 69 44t72 48.5t78.5 57t73.5 61.5t72.5 69.5t59.5 73.5t50.5 82t30 86.5t12.5 94.5q0 73 -33.5 142t-91.5 125t-128 101t-152 80l131 566q215 -11 362 -11q156 0 191 35q9 10 41 68q26 0 47 -13q-39 -144 -49 -219q-22 -16 -57 -23t-117 -7q-170 0 -383 8 l-56 -254q78 -36 144 -75.5t128 -90.5t105.5 -105t69.5 -120t26 -136q0 -75 -21.5 -146t-56.5 -129.5t-88.5 -116t-108.5 -102t-126.5 -90.5t-133 -80t-136.5 -71q-25 17 -25 47z" />
<glyph unicode="6" horiz-adv-x="1067" d="M123 465q0 173 66.5 334t181 287t260 222.5t311.5 155.5q8 -7 15.5 -20.5t7.5 -26.5q-127 -62 -222.5 -125t-181.5 -148.5t-140.5 -184.5t-86 -230.5t-31.5 -288.5q0 -85 13 -155.5t40.5 -126.5t75 -87.5t111.5 -31.5q105 0 183.5 103t78.5 278q0 71 -27.5 141.5t-82 119 t-120.5 48.5q-67 0 -133 -39q-22 13 -22 53q63 40 115 53t118 13q128 0 224 -96.5t96 -245.5q0 -108 -37 -196.5t-104 -150t-154 -101.5t-193 -60q-169 0 -265.5 139t-96.5 367z" />
<glyph unicode="7" horiz-adv-x="948" d="M0 -492q65 112 191.5 335.5t205.5 360.5t196 328.5t224 350.5q-164 16 -348 16q-49 0 -74 -0.5t-64.5 -1.5t-61 -4.5t-46.5 -9.5t-38.5 -16t-20.5 -23l-43 -88q-41 0 -49 16q10 46 26.5 110t25.5 104.5t13 70.5q145 -15 488 -15q240 0 358 13q7 -6 11.5 -16.5t5.5 -17.5 l1 -7q-102 -140 -199.5 -296.5t-173 -293t-165.5 -322.5t-151.5 -321t-157.5 -352q-4 -2 -21 -2q-10 0 -16 6q-18 26 -47.5 45t-49.5 24z" />
<glyph unicode="8" horiz-adv-x="948" d="M74 270q0 63 24 123.5t58.5 105.5t86 90.5t93 74t92.5 59.5q-59 43 -97.5 75t-78.5 75.5t-60 89.5t-20 96q0 155 109 260t282 129q121 0 216 -83t95 -202q0 -62 -20 -114t-65.5 -101t-86 -82t-114.5 -86q59 -42 103 -81t85 -87.5t62.5 -104.5t21.5 -116q0 -94 -37 -172 t-100 -129.5t-138.5 -84t-160.5 -46.5q-134 0 -242 90t-108 221zM231 313q0 -119 62 -199.5t160 -80.5q116 0 185 88.5t69 204.5q0 102 -66 187t-180 169q-53 -42 -89.5 -78t-71 -82t-52 -98.5t-17.5 -110.5zM305 1149q0 -140 246 -328q88 72 134 145t46 167 q0 105 -56.5 177t-144.5 72q-92 0 -158.5 -73t-66.5 -160z" />
<glyph unicode="9" horiz-adv-x="1067" d="M96 543q0 209 135.5 351.5t352.5 178.5q168 0 264 -147t96 -387q0 -365 -209 -681t-545 -466q-26 6 -26 45q171 106 289.5 229.5t185.5 266.5t96 294.5t29 335.5q0 91 -12.5 166t-39 135.5t-73 94.5t-109.5 34q-53 0 -98 -24.5t-75.5 -63.5t-52 -89.5t-31 -102 t-9.5 -101.5q0 -65 13.5 -126t40 -112.5t71 -82.5t100.5 -31q62 0 140 37q18 -12 18 -51q-62 -40 -114 -53t-115 -13q-138 0 -230 108.5t-92 254.5z" />
<glyph unicode=":" horiz-adv-x="350" d="M33 104q26 44 60 73t89 50q36 -34 58 -75t22 -76q0 -34 -53.5 -76.5t-99.5 -42.5q-33 96 -76 147zM106 811q51 88 150 123q35 -32 57.5 -74t22.5 -76q0 -36 -53.5 -78t-100.5 -42q-31 94 -76 147z" />
<glyph unicode=";" horiz-adv-x="352" d="M-43 -244q61 49 110.5 104t49.5 97q0 55 -84 147q32 47 68 77t89 46q43 -55 60.5 -88.5t17.5 -66.5q0 -56 -20 -105.5t-61.5 -94t-88 -80.5t-114.5 -79q-27 13 -27 43zM115 811q26 45 60 74.5t89 48.5q35 -32 57.5 -74t22.5 -76q0 -36 -53.5 -78t-100.5 -42 q-31 96 -75 147z" />
<glyph unicode="&#x3c;" horiz-adv-x="1015" d="M82 475l14 57l461 189q24 10 96.5 38.5t136 56t130.5 61.5q16 -9 16 -23q-11 -49 -16 -102l-625 -244l563 -219q-5 -29 -12 -101q-4 -8 -10.5 -13.5t-11.5 -6.5l-5 -2q-92 46 -319 139z" />
<glyph unicode="=" horiz-adv-x="1245" d="M109 317q24 60 36 101h525q202 0 395 18q14 -8 14 -35q-28 -57 -37 -100h-499q-180 0 -420 -16q-14 3 -14 32zM166 682q32 83 37 102h524q191 0 395 19q15 -8 15 -35q-28 -57 -37 -102h-500q-201 0 -420 -17q-14 6 -14 33z" />
<glyph unicode="&#x3e;" horiz-adv-x="1015" d="M80 188q8 66 10 101l645 252l-577 213q5 30 12 100q4 9 10.5 14.5t11.5 7.5l5 1q104 -52 319 -140l418 -170l-14 -57l-461 -188q-25 -10 -96.5 -38t-135.5 -55.5t-131 -62.5q-16 8 -16 22z" />
<glyph unicode="?" horiz-adv-x="784" d="M109 715q29 18 92 45.5t118 53.5t110.5 62t88.5 87t33 112t-31.5 124t-77 110t-90.5 86t-76.5 64.5t-31.5 31.5q0 19 34.5 91t73.5 116q27 -4 49 -29q-3 -12 -11.5 -30t-10.5 -23q111 -95 171 -162.5t95 -150.5t35 -183q0 -60 -24 -114t-57.5 -91.5t-88.5 -75t-96 -59 t-101 -49.5q9 -21 27 -110t18 -148q0 -22 -64 -68.5t-95 -46.5q0 65 -34.5 192.5t-55.5 164.5zM147 106q26 43 60.5 71.5t89.5 49.5q36 -34 58 -75t22 -76q0 -34 -53.5 -76.5t-100.5 -42.5q-32 95 -76 149z" />
<glyph unicode="@" horiz-adv-x="1775" d="M92 254q0 182 59 347.5t162 291.5t236.5 219.5t287 142t308.5 48.5q267 0 408 -157t141 -435q0 -279 -152 -472.5t-418 -285.5q-37 19 -59.5 66.5t-22.5 105.5q0 136 41 311q-39 -60 -67.5 -102.5t-78.5 -108.5t-93.5 -111.5t-99 -89.5t-107.5 -65q-71 13 -119.5 83 t-48.5 185q0 163 92.5 316t241.5 260q63 45 133.5 79t109.5 46t54 14q97 10 112 16l101 41q11 0 22 -14q-145 -688 -145 -780q0 -62 11.5 -88.5t41.5 -26.5q80 0 151.5 100t111.5 247.5t40 291.5q0 241 -113 374.5t-341 133.5q-158 0 -309.5 -81t-265.5 -215.5t-183.5 -319 t-69.5 -381.5q0 -94 30.5 -187t86 -169.5t143 -124.5t191.5 -48q96 0 168.5 16.5t156.5 57.5q25 -14 25 -61q-202 -93 -367 -93q-181 0 -321 86.5t-212.5 227.5t-72.5 309zM623 293q0 -178 90 -178q57 0 149.5 97.5t175 242t109.5 266.5l31 131q-120 0 -179 -8 q-74 -9 -145.5 -69t-121 -142.5t-79.5 -174t-30 -165.5z" />
<glyph unicode="A" horiz-adv-x="1378" d="M-55 16l4 19q35 10 58.5 20t48.5 30.5t42 41.5t43 64.5t49 88t62 123.5l491 1006q4 10 7.5 24.5t4.5 23.5l1 9l106 35l244 -1155q50 -224 80 -283q51 -6 94 -6q4 -6 4 -16q0 -23 -12 -47q-34 0 -120 3t-95 3q-140 0 -252 -16q-4 4 -4 22l4 29q83 18 115 45.5t32 75.5 q0 32 -12 88l-66 307q-85 6 -217 6q-57 0 -133.5 -3t-111.5 -3l-62 -131q-44 -93 -80.5 -198t-40.5 -163q41 -2 129 -2q2 -10 2 -24q0 -20 -8 -39q-41 0 -111.5 3t-82.5 3q-116 0 -207 -16q-6 24 -6 32zM442 631q6 0 87 -4t135 -4q120 0 196 6l-125 626z" />
<glyph unicode="B" horiz-adv-x="1245" d="M39 14l2 21q50 12 83.5 30.5t51 44.5t25.5 47.5t14 55.5q43 235 66 502q38 408 38 581q0 92 -14 99q-59 0 -151 -4q-7 12 -7 26q0 20 7 27q5 1 93.5 10t156 15.5t167 13t172.5 6.5q159 0 265 -81.5t106 -221.5q0 -75 -24.5 -140.5t-65 -110.5t-85.5 -75.5t-93 -46.5 q276 -96 276 -369q0 -95 -36.5 -175t-107 -140.5t-182.5 -94.5t-255 -34q-373 0 -494 -16q-8 11 -8 30zM391 133q0 -28 2 -51q65 -8 125 -8q114 0 196 27.5t127 77t65 108.5t20 131q0 152 -75 247t-202 95h-84q-2 8 -2 18q0 15 3 29t6 21l3 6h58q37 0 76.5 10t81.5 34.5 t74.5 60.5t53.5 94t21 128q0 115 -64 185.5t-196 70.5q-86 0 -164 -16q-23 -119 -36.5 -232.5t-37.5 -373.5l-39 -443q-12 -136 -12 -219z" />
<glyph unicode="C" horiz-adv-x="1392" d="M113 580q0 176 67 345.5t179 297.5t268 206t325 78q120 0 230.5 -22t171.5 -43q12 -9 12 -19q0 -9 -10 -68t-23.5 -145t-19.5 -147q-13 -8 -37 -8q-17 0 -33 4q-12 226 -20 262q-41 42 -129 77.5t-170 35.5q-123 0 -236 -72.5t-191 -187t-124.5 -258.5t-46.5 -285 q0 -88 13.5 -169.5t45.5 -159t79.5 -135t120.5 -92t163 -34.5q102 0 214.5 72.5t217.5 208.5q18 0 33 -10t21 -20l5 -11q-6 -10 -16.5 -26.5t-38.5 -58.5t-51.5 -75t-48 -62t-35.5 -32q-206 -68 -371 -68q-170 0 -300 83t-197.5 223.5t-67.5 314.5z" />
<glyph unicode="D" horiz-adv-x="1509" d="M39 10l2 25q50 12 83 30t50.5 45t25 47.5t15.5 55.5q37 160 66 502q38 408 38 581q0 99 -16 99q-88 0 -149 -4q-7 14 -7 26q0 20 7 27q16 1 93.5 10t145.5 16t166 13t176 6q151 0 274 -37.5t214.5 -112t141.5 -192t50 -270.5q0 -134 -34 -264t-100 -241.5t-156.5 -197 t-211.5 -134t-256 -48.5q-63 0 -157 4t-115 4q-223 0 -342 -16q-4 16 -4 26zM391 100q106 -34 254 -34q107 0 199.5 41.5t160.5 114t116.5 170t73 210.5t24.5 234q0 263 -141 422t-384 159q-119 0 -178 -10q-10 -33 -17.5 -75.5t-17.5 -134t-16 -153.5t-21 -233 q-53 -630 -53 -711z" />
<glyph unicode="E" d="M39 10l2 25q50 12 83 30t50.5 45t25 47.5t15.5 55.5q42 181 72 575q8 97 17 204.5t12 148.5t6.5 89t4.5 71t1 49q0 69 -9 69q-35 6 -124 6q-5 9 -5 19q0 6 9 37q41 0 112.5 -3t83.5 -3h287q84 0 255 7t185 7q17 0 22 -5t5 -16q0 -3 -9.5 -50.5t-24.5 -134t-25 -169.5 q-14 -6 -33 -6q-7 0 -31 6q-10 231 -16 254q-158 43 -357 43q-80 0 -131 -8q-16 -36 -28 -135q-15 -106 -45 -465q27 -8 151 -8q131 0 205 10q92 10 121 82q30 0 49 -13q-29 -160 -39 -323q-16 -4 -21 -4q-7 0 -14.5 2t-11.5 4l-4 2v156q-112 18 -285 18q-88 0 -160 -10 l-32 -373q-13 -140 -13 -272q52 -8 129 -8q197 0 391 55q15 23 30 53.5t24.5 52.5t24.5 60t22 55q30 0 59 -16q-29 -105 -65 -295q-5 -22 -27 -25q-82 -14 -215 -14q-73 0 -185.5 4t-129.5 4h-103q-188 0 -307 -16q-4 16 -4 26z" />
<glyph unicode="F" horiz-adv-x="1218" d="M39 10l2 25q50 12 83 30t50.5 45t25 47.5t15.5 55.5q42 181 72 575q8 97 17 204.5t12 148.5t6.5 89t4.5 71t1 49q0 69 -9 69q-35 6 -124 6q-5 9 -5 19q0 6 9 37q41 0 112.5 -3t83.5 -3h287q89 0 269.5 7t195.5 7q17 0 22 -5t5 -16q0 -2 -11 -50.5t-26 -134t-23 -169.5 q-16 -6 -33 -6q-12 0 -30 6q-10 226 -17 254q-172 43 -381 43q-80 0 -131 -8q-14 -25 -29 -150.5t-49 -472.5q46 -8 154 -8q116 0 205 12q91 7 121 82q29 0 49 -14q-28 -136 -39 -326q-16 -4 -23 -4t-14 2t-11 4l-3 2v158q-25 6 -106.5 12.5t-178.5 6.5q-105 0 -162 -11 l-18 -237q-23 -303 -23 -383q94 -13 234 -13q2 -20 2 -30q0 -25 -8 -39q-65 0 -158.5 3t-114.5 3q-188 0 -307 -16q-4 16 -4 26z" />
<glyph unicode="G" horiz-adv-x="1439" d="M109 580q0 141 42.5 279t121 253.5t181.5 205t232 139.5t264 50q119 0 230.5 -22t171.5 -43q10 -8 10 -19q0 -9 -9.5 -68t-22.5 -145t-19 -147q-13 -8 -39 -8q-17 0 -33 4q-8 216 -18 262q-41 42 -130 77.5t-171 35.5q-122 0 -235 -72.5t-191.5 -187t-125 -258.5 t-46.5 -285q0 -88 14 -169.5t46 -159t79.5 -135t120.5 -92t163 -34.5q82 0 165 24.5t128 67.5l41 365q-79 10 -211 10q-6 14 -6 27q0 11 3 21t6 14l3 5q54 0 163.5 -2t131.5 -2q107 0 197 17q4 -16 4 -31l-4 -31q-56 -8 -84.5 -34t-42.5 -99l-53 -278q-83 -65 -226 -110.5 t-286 -45.5q-169 0 -299 83t-198 223.5t-68 314.5z" />
<glyph unicode="H" horiz-adv-x="1581" d="M39 10l2 25q50 12 83 30t50.5 45t25 47.5t15.5 55.5q42 181 72 575q8 97 17 204.5t12 148.5t6.5 89t4.5 71t1 49q0 69 -9 69q-35 6 -124 6q-5 9 -5 19q0 6 9 37q41 0 108.5 -3t79.5 -3q170 0 266 8q9 -14 9 -31l-5 -20q-41 -12 -69 -29t-43.5 -42t-22.5 -45t-14 -54 q-25 -131 -59 -451q180 -8 395 -8q81 0 199 4t145 4l26 319q13 160 13 220q0 69 -8 69q-37 6 -127 6q-2 9 -2 23q0 19 8 33q41 0 108 -3t80 -3q166 0 262 8q8 -8 8 -31l-2 -20q-78 -22 -108 -62.5t-43 -107.5q-41 -223 -74 -613l-26 -305q-11 -136 -11 -215q0 -66 8 -66 q35 -6 136 -6q4 -10 4 -24q0 -11 -8 -39q-41 0 -111 3t-82 3q-196 0 -321 -16q-7 9 -7 26l4 25q47 9 81 23t54 29t33.5 37.5t19 41t11.5 47.5q27 147 66 508q-51 0 -161.5 5t-182.5 5q-151 0 -396 -10l-32 -377q-13 -160 -13 -215q0 -66 8 -66q33 -6 127 -6q2 -10 2 -24 q0 -20 -8 -39q-41 0 -105 3t-77 3q-180 0 -299 -16q-4 16 -4 26z" />
<glyph unicode="I" horiz-adv-x="694" d="M18 16l5 17q61 13 98.5 28t57 38.5t26.5 42.5t14 57q13 71 34.5 227.5t31.5 294.5l18 229q23 273 23 391q0 78 -15 78q-68 6 -147 6q-2 9 -2 19q0 23 8 37q44 0 145 -3t117 -3q13 0 101.5 3t132.5 3q4 -8 4 -23q0 -8 -2 -16t-4 -12l-2 -5q-80 0 -123 -6q-8 -1 -20 -55 t-26 -163.5t-26 -250.5l-27 -334q-28 -336 -28 -499q0 -62 6 -62q49 -6 190 -6q4 -8 4 -18q0 -9 -8 -37q-53 0 -150 3t-112 3q-188 0 -315 -16q-9 18 -9 32z" />
<glyph unicode="J" horiz-adv-x="669" d="M-90 -518l104 108q115 123 163.5 284t74.5 468l45 545q29 337 29 450q0 80 -13 80q-79 8 -168 8q-4 9 -4 23q0 7 3 18.5t3 14.5q51 0 141 -3t107 -3q154 0 236 16q8 -11 8 -31l-2 -20q-23 -5 -42.5 -19.5t-31.5 -31t-22.5 -43.5t-15 -42t-11.5 -42q-11 -38 -28.5 -189.5 t-26.5 -263.5l-58 -637q-10 -106 -20.5 -172t-27.5 -126.5t-45.5 -104.5t-68.5 -86.5t-102 -92.5l-196 -155q-31 8 -31 47z" />
<glyph unicode="K" horiz-adv-x="1320" d="M39 10l2 25q59 12 97.5 28t59.5 40t30 48t16 62q41 248 69 575q41 476 41 562q0 69 -8 69q-35 6 -125 6q-2 9 -2 19q0 18 8 37q40 0 112.5 -3t84.5 -3q166 0 262 8q8 -12 8 -31l-4 -20q-41 -12 -69 -29t-43.5 -42t-22.5 -45t-14 -54q-32 -136 -52 -371l-47 -547 q-10 -123 -10 -215q0 -66 8 -66q41 -6 148 -6q2 -10 2 -24q0 -20 -8 -39q-46 0 -118 3t-87 3q-205 0 -334 -16q-4 16 -4 26zM541 821l264 252q69 68 142.5 159t115.5 171q-34 21 -139 24q0 38 10 56q187 -8 246 -8q16 0 129 10q12 -12 12 -33q0 -10 -2 -18 q-121 -72 -205 -156l-407 -399l208 -418q103 -209 166.5 -302.5t108.5 -99.5q33 -4 121 -4q6 -18 6 -24q0 -15 -8 -31q-71 -4 -139 -14.5t-108.5 -18.5t-51.5 -8q-33 0 -132 182.5t-212.5 420.5t-124.5 259z" />
<glyph unicode="L" horiz-adv-x="1196" d="M39 10l2 25q50 12 83 30t50.5 45t25 47.5t15.5 55.5q36 158 72 575q41 476 41 562q0 69 -9 69q-35 6 -124 6q-5 9 -5 19q0 6 9 37q41 0 112.5 -3t83.5 -3q193 0 310 8q8 -8 8 -31l-2 -20q-55 -12 -91.5 -27.5t-57 -38t-30 -42.5t-18.5 -52q-32 -137 -53 -381l-45 -547 q-13 -137 -13 -205q0 -43 5 -65q60 -8 149 -8q197 0 391 55q19 30 37 68t41 97.5t29 73.5q30 0 59 -16q-21 -78 -44.5 -187.5t-27.5 -125.5q-1 -14 -6.5 -18.5t-19.5 -6.5q-77 -14 -215 -14q-73 0 -185.5 4t-130.5 4h-135q-188 0 -307 -16q-4 16 -4 26z" />
<glyph unicode="M" horiz-adv-x="1861" d="M23 14l2 21q88 21 126 65.5t52 110.5q79 403 143 1106q-32 66 -98 100q-40 16 -123 23q0 32 14 53q70 -4 107 -4q47 0 114.5 4t83.5 4q13 0 36.5 -30t63.5 -106t87 -190q62 -152 132.5 -365.5t120 -381t50.5 -170.5q44 93 283 566t317 655q191 0 301 18q6 -24 6 -27 l-4 -24q-50 -12 -84.5 -31t-53.5 -44.5t-28 -49t-14 -55.5q-26 -156 -51 -650q-11 -180 -11 -389q0 -111 2 -168q33 -6 148 -6q2 -8 2 -18q0 -18 -8 -37q-40 0 -109.5 3t-81.5 3q-192 0 -313 -16q-8 11 -8 30l2 21q103 20 143.5 60.5t50.5 111.5q22 178 43 604l17 336 q-92 -145 -308.5 -568t-295.5 -626l-52 14q-280 904 -362 1092l-66 151q-3 -27 -14.5 -127t-24.5 -232.5t-30 -328.5q-19 -234 -19 -467q43 -6 148 -6q2 -8 2 -18q0 -18 -8 -37q-47 0 -121.5 3t-87.5 3q-126 0 -213 -16q-8 11 -8 30z" />
<glyph unicode="N" horiz-adv-x="1636" d="M31 10l2 25q48 12 80.5 30.5t51 44t27 48t15.5 55.5q23 104 60.5 390t78.5 734q-54 60 -86 76.5t-123 26.5q-4 8 -4 20q0 23 8 33q39 -2 90 -2q63 0 128 5t83 5q28 0 118.5 -114.5t219.5 -307.5q247 -368 498 -800q7 163 37.5 552.5t30.5 497.5q0 25 -3 90q-43 6 -149 6 q-6 11 -6 25q0 15 8 31q46 0 114.5 -3t82.5 -3q128 0 215 16q4 -6 4 -23l-4 -28q-48 -12 -78.5 -29t-46.5 -42t-22.5 -47.5t-10.5 -59.5q-41 -287 -131 -1293l-49 -20q-63 109 -277 443.5t-297 469.5q-70 114 -155.5 234.5t-139.5 179.5q-6 -68 -25.5 -296.5t-29 -350 t-19.5 -274.5t-10 -226q0 -41 2 -74q41 -6 146 -6q2 -8 2 -22q0 -21 -8 -33q-47 0 -120.5 3t-86.5 3q-128 0 -217 -16q-4 8 -4 26z" />
<glyph unicode="O" horiz-adv-x="1529" d="M113 580q0 132 23.5 247.5t63 200t92.5 156.5t110 120t118.5 86t114.5 59t101 35t75.5 18.5t40.5 4.5q168 0 302 -84t207 -226.5t73 -313.5q0 -168 -36.5 -308.5t-93.5 -233.5t-132 -165t-146.5 -111.5t-143.5 -65t-116 -33t-70 -7.5q-169 0 -303 82.5t-207 224 t-73 314.5zM305 686q0 -119 32 -230t89 -198t145 -139.5t191 -52.5q99 0 180.5 41.5t135.5 110.5t91 162.5t53.5 195t16.5 210.5q0 90 -17.5 177.5t-54.5 167t-89 140t-125.5 96.5t-159.5 36q-121 0 -217 -63t-153.5 -167t-87.5 -229t-30 -258z" />
<glyph unicode="P" horiz-adv-x="1155" d="M39 10l2 25q50 12 83 30t50.5 45t25 47.5t15.5 55.5q37 160 66 502q38 408 38 581q0 99 -16 99q-88 0 -149 -4q-7 14 -7 26q0 20 7 27q12 1 91.5 10t146 16t161.5 13t168 6q196 0 315 -101t119 -292q0 -133 -65 -251t-182.5 -191.5t-258.5 -73.5q-106 0 -139 2 q-2 10 -2 24q0 16 3.5 28.5t6.5 17.5l4 5q25 -2 84 -2q104 0 187.5 58t127.5 149.5t44 194.5q0 165 -82.5 262.5t-220.5 97.5q-77 0 -146 -16q-35 -181 -80 -680l-33 -377q-10 -127 -10 -215q0 -66 8 -66q49 -6 220 -6q2 -10 2 -24q0 -18 -9 -39q-59 0 -152 3t-112 3 q-188 0 -307 -16q-4 16 -4 26z" />
<glyph unicode="Q" horiz-adv-x="1513" d="M113 580q0 132 23.5 247.5t63 200t92.5 156.5t110 120t118.5 86t114.5 59t101 35t75.5 18.5t40.5 4.5q168 0 302 -84t207 -226.5t73 -313.5q0 -131 -20.5 -246t-53.5 -202.5t-85.5 -172t-104.5 -146t-123 -132.5q-169 -169 -455 -314q86 -7 228 -55.5t271.5 -93.5 t192.5 -45q18 0 84 50.5t109 88.5q22 -7 32.5 -17.5t20.5 -29.5l-236 -254q-90 4 -218 39.5t-235 75.5t-231.5 73t-210.5 33q-71 0 -155 -33q-15 15 -23 38.5t-8 33.5q262 112 432 215t291 229q146 151 224.5 360t78.5 394q0 90 -17.5 179t-54.5 170.5t-89 144t-125.5 100 t-159.5 37.5q-121 0 -217 -63t-153.5 -167t-87.5 -229t-30 -258q0 -102 30 -210t83.5 -200t137 -151t179.5 -59q-1 -2 -12.5 -18t-20.5 -27t-28 -29t-41 -33q-108 0 -206 55t-166 143t-108 199.5t-40 223.5z" />
<glyph unicode="R" horiz-adv-x="1277" d="M39 10l2 25q50 12 83 30t50.5 45t25 47.5t15.5 55.5q37 160 66 502q38 408 38 581q0 99 -16 99q-88 0 -149 -4q-7 14 -7 26q0 20 7 27q7 1 115 14.5t214 22t199 8.5q204 0 317 -99.5t113 -259.5q0 -121 -43.5 -208.5t-117.5 -142.5t-191 -101q59 -134 123 -260 q99 -196 153 -273t103 -86q31 -4 114 -4q7 -21 7 -24q0 -13 -9 -31q-72 -3 -140 -13.5t-108.5 -19t-50.5 -8.5q-17 0 -46.5 39t-69 113t-71.5 140t-75 159l-125 278q102 36 170 77.5t106.5 93t54 108.5t15.5 133q0 59 -17.5 114.5t-50.5 101.5t-87.5 73.5t-122.5 27.5 q-48 0 -117 -16q-34 -178 -80 -680l-33 -377q-10 -127 -10 -215q0 -66 8 -66q33 -6 138 -6q2 -10 2 -24q0 -18 -9 -39q-41 0 -105 3t-77 3q-188 0 -307 -16q-4 16 -4 26z" />
<glyph unicode="S" horiz-adv-x="1114" d="M68 33l38 395q13 8 35 8q25 0 45 -10q3 -207 43 -270q74 -123 281 -123q119 0 202 85t83 218q0 99 -65 175.5t-200 158.5q-99 60 -158.5 102.5t-108 91.5t-69 100.5t-20.5 114.5q0 102 44.5 185.5t118.5 135.5t166.5 79.5t192.5 27.5q84 0 184 -24.5t152 -50.5l-51 -353 q-16 -8 -33 -8q-21 0 -37 8q-4 78 -7.5 120t-14 87.5t-27.5 65.5q-32 38 -94 63t-129 25q-120 0 -199.5 -76t-79.5 -201q0 -87 67 -155.5t222 -163.5q55 -34 92.5 -59.5t87.5 -69.5t80 -86t52 -101.5t22 -124.5q0 -85 -30 -158t-81 -124.5t-117.5 -88.5t-140.5 -55t-149 -18 q-109 0 -230.5 24.5t-166.5 49.5z" />
<glyph unicode="T" horiz-adv-x="1275" d="M41 1122l65 344q4 16 11 19.5t24 3.5q15 0 136 -7t184 -7h454q71 0 207.5 7t147.5 7q30 0 30 -16q0 -3 -11.5 -51.5t-27 -129.5t-22.5 -155q-15 -9 -35 -9q-18 0 -30 9l-17 233q-75 41 -254 41q-67 0 -110 -10q-21 -45 -44 -224t-34 -333l-29 -377q-12 -147 -12 -270 q0 -92 4 -125q88 -15 192 -15q4 -10 4 -24q0 -11 -8 -39q-65 0 -173.5 3t-129.5 3q-227 0 -360 -16q-6 9 -6 22l6 29q130 23 184.5 56.5t73.5 98.5q43 161 74 525q12 137 25 344.5t13 269.5q0 31 -2 72q-49 10 -114 10q-175 0 -250 -41q-8 -18 -44.5 -112t-62.5 -152 q-17 0 -24.5 0.5t-16.5 4t-18 11.5z" />
<glyph unicode="U" horiz-adv-x="1564" d="M164 1444q0 18 8 37q40 0 102 -3t76 -3q169 0 271 16q8 -12 8 -31l-4 -20q-49 -12 -80.5 -26.5t-48.5 -36t-24 -40t-13 -51.5q-27 -155 -49 -401q-3 -40 -12 -126.5t-14 -151.5t-5 -105q0 -213 92 -334t277 -121q124 0 211.5 38t142 116.5t83.5 181.5t42 250 q4 49 14.5 168t13 151.5t9 113.5t8 121.5t3 103.5t1.5 128q-41 6 -160 6q-2 11 -2 25q0 19 6 31q46 0 126 -3t95 -3q135 0 213 16q9 -13 9 -31l-4 -20q-47 -12 -80.5 -35.5t-51.5 -57t-26 -59t-15 -61.5q-38 -229 -75 -645q-27 -301 -175 -462t-413 -161q-89 0 -162 16 t-124 42.5t-90 66t-62.5 82.5t-38 96t-20 102t-5.5 105q0 70 25 416q2 36 12 170.5t16.5 236t6.5 127.5q-35 6 -115 6q-2 9 -2 19z" />
<glyph unicode="V" horiz-adv-x="1513" d="M84 1440q0 26 14 51q114 -16 293 -16q93 0 246 6q2 -14 2 -31q0 -8 -1.5 -14t-3.5 -8l-1 -3q-107 0 -150 -2q0 -244 99 -596l172 -606l297 606q91 186 160.5 362t74.5 228q-35 8 -139 8q-2 9 -2 23q0 19 8 33q117 -6 190 -6q122 0 216 16q6 -10 6 -25l-2 -26 q-74 -22 -121 -72q-62 -71 -119 -172t-190 -369l-451 -907h-29l-307 1063q-80 302 -141 393q-26 37 -121 64z" />
<glyph unicode="W" horiz-adv-x="2009" d="M31 1440q0 28 10 51q114 -16 293 -16q81 0 231 6q6 -18 6 -23q0 -7 -2 -15.5t-4 -12.5l-2 -5q-104 0 -151 -2q0 -204 102 -596l164 -620l305 571q-17 61 -42.5 155.5t-41 150t-34.5 120t-34.5 106.5t-29.5 68q-17 35 -82 54q0 28 8 51q90 -8 248 -8q131 -2 190 -2l181 2 q93 0 161 8q9 -15 9 -31l-3 -20q-27 -9 -40 -19t-31 -35q-69 -95 -305 -508l184 -663l276 620q196 438 224 590q-33 8 -140 8q-2 8 -2 19q0 16 9 37q123 -6 190 -6q99 0 195 16q6 -18 6 -23q0 -7 -1.5 -14t-3.5 -10l-1 -4q-48 -19 -91 -62q-39 -41 -104.5 -156.5 t-99.5 -189.5l-508 -1112h-47l-209 760l-400 -760h-30l-295 1063q-46 169 -77 261.5t-62 131.5q-18 24 -46.5 37.5t-72.5 26.5zM1008 1419q0 -68 29 -203t69 -268q186 377 207 471q-2 0 -25.5 1.5t-59 3t-65.5 1.5q-38 0 -96 -3t-59 -3z" />
<glyph unicode="X" horiz-adv-x="1449" d="M27 16l4 19q130 108 370 399l238 285q-15 35 -64 150t-81 188q-84 188 -158 284q-44 54 -80.5 73.5t-118.5 25.5q-6 10 -6 24q0 18 8 29q33 -2 84 -2q36 0 106 5t113 5q10 0 39 -35.5t76 -116t92 -180.5q87 -193 139 -315l146 180q102 126 143 184.5t113 188.5 q-92 4 -172 4q-2 13 -2 29q0 19 8 35h188q115 0 244 16q8 -20 8 -31l-4 -20q-93 -50 -185.5 -136.5t-227.5 -248.5l-228 -279q26 -65 162 -364q61 -130 112 -208t86.5 -106t71.5 -32q49 -3 109 -3q2 -8 2 -28q0 -15 -4 -35q-66 -3 -134.5 -13.5t-111.5 -19t-53 -8.5 q-18 0 -49.5 33.5t-81 114t-101.5 192.5q-108 233 -155 348l-97 -117q-103 -127 -170.5 -227t-134.5 -235q112 -5 158 -5q4 -12 4 -28q0 -25 -8 -35h-186q-74 0 -199 -16q-12 15 -12 32z" />
<glyph unicode="Y" horiz-adv-x="1204" d="M0 1458q0 19 8 35q6 0 42.5 -1t53.5 -1q24 0 86 5t97 5q10 0 41.5 -39t75 -111.5t86.5 -162t80.5 -206t54.5 -226.5q62 179 155 377q90 189 178 281.5t158 92.5q32 0 64 -14.5t48 -29.5l17 -15q-31 -95 -88 -154q-29 26 -46 34.5t-48 8.5q-53 0 -123 -89t-131 -224 q-73 -163 -114.5 -295t-49.5 -278q-6 -83 -6 -220q0 -30 1 -84t1 -75q83 -15 188 -15q0 -40 -4 -63q-58 0 -154 3t-116 3q-213 0 -356 -16q-4 8 -4 26l2 25q70 9 118.5 25t75.5 38.5t40 45t22 53.5q12 50 21 146t9 179q0 109 -28.5 232t-74.5 231.5t-95 198.5t-99 159 q-39 54 -73.5 73.5t-110.5 23.5q-2 8 -2 18z" />
<glyph unicode="Z" horiz-adv-x="1390" d="M43 14q0 11 4 19l1004 1362h-246q-328 0 -483 -52l-101 -243q-10 -2 -24 -2q-18 0 -35 14l61 346q3 14 11 18.5t28 4.5q15 0 205 -3t305 -3h113q226 0 409 26q17 -14 17 -35l-2 -18l-1008 -1366q153 10 324 10q340 0 432 66q71 53 145 221q8 4 19 4q25 0 49 -21 q-61 -210 -88 -329q-6 -24 -27 -27q-14 -4 -90 -4q-123 0 -170 4q-176 4 -338 4q-79 0 -237 -10t-263 -25q-14 20 -14 39z" />
<glyph unicode="[" horiz-adv-x="614" d="M123 -385q45 229 100 907l31 344q1 16 9.5 110t15.5 181t15 200t12.5 222t4.5 193q11 20 31 20q149 -69 322 -96q6 -9 6 -25q0 -14 -13 -31l-135 -12q-23 -4 -39 -13.5t-25.5 -21.5t-15.5 -34.5t-8.5 -41t-5.5 -51.5q-5 -61 -26 -292l-25 -275l-35 -410q-2 -20 -16 -183 t-23.5 -280.5t-9.5 -146.5q0 -66 11 -89t56 -30q18 -4 51 -7.5t57 -4.5l24 -2q6 -10 6 -27q0 -7 -3 -14t-7 -11l-3 -3q-181 -28 -338 -94q-8 0 -14 4.5t-8 8.5z" />
<glyph unicode="\" horiz-adv-x="677" d="M84 1778q67 29 104 57q6 2 17 2q6 0 11.5 -2.5t7.5 -4.5l3 -3q9 -176 172 -1034l183 -943q-11 -6 -33.5 -18t-39.5 -22t-32 -21q-4 -2 -12 -2q-7 0 -13.5 2.5t-9.5 4.5l-2 3q-11 180 -159 959z" />
<glyph unicode="]" horiz-adv-x="671" d="M0 -285q0 11 10 31q90 8 137 14q52 7 69 43t24 117q9 127 53 569l35 410q49 573 49 608q0 65 -12 88.5t-56 32.5q-18 4 -51 7t-56 4l-24 1q-6 12 -6 29q0 7 2.5 14t5.5 10l2 3q172 27 340 96q8 0 14 -5t8 -10l3 -5q-25 -129 -57.5 -434.5t-45.5 -471.5l-28 -344 q-1 -16 -12.5 -150.5t-20.5 -244t-17 -259.5t-8 -253q-12 -18 -30 -18q-143 66 -322 94q-6 8 -6 24z" />
<glyph unicode="^" horiz-adv-x="1001" d="M47 754q30 53 112.5 198.5t121 213t105 182t124.5 211t119 194.5h57q82 -304 234 -1005q-38 -35 -82 -35l-213 819l-510 -819q-41 0 -68 41z" />
<glyph unicode="_" horiz-adv-x="1165" d="M0 -186q23 52 35 98h555q326 0 559 20q16 -5 16 -32q-26 -48 -35 -99h-546q-332 0 -568 -16q-16 9 -16 29z" />
<glyph unicode="`" d="M387 1526q24 82 111 102q63 -93 153.5 -197t149.5 -161l59 -58q-6 -22 -33 -38q-32 21 -83.5 57t-169.5 129t-187 166z" />
<glyph unicode="a" horiz-adv-x="1099" d="M82 256q0 199 88.5 356t222.5 258q65 50 141.5 87t116.5 49.5t62 15.5q138 15 145 18l107 41q10 0 24 -14q-36 -197 -75.5 -447t-45.5 -307q-2 -18 -2 -53q0 -121 37 -121q4 0 129 43q19 -14 19 -49q-69 -29 -125.5 -60t-80 -48t-57.5 -45t-36 -29l-33 14 q-10 14 -16.5 59.5t-6.5 88.5q0 120 41 348q-48 -78 -90.5 -138.5t-107 -140.5t-135 -138t-140.5 -85q-75 13 -128.5 91.5t-53.5 205.5zM240 328q0 -95 25 -150t77 -55q46 0 116 61t136 152.5t122 207t77 216.5l34 168q-137 0 -219 -10q-51 -6 -113 -53t-119.5 -121.5 t-96.5 -185.5t-39 -230z" />
<glyph unicode="b" horiz-adv-x="1083" d="M90 -18q28 94 64 370l98 772q51 384 51 447q0 44 -14.5 63t-48.5 21l-127 6q-7 14 -7 25q0 7 2 13.5t4 9.5l1 3q103 15 172 30.5t176 51.5q20 0 24 -18q-41 -285 -168 -1258q228 468 453 524q97 -12 159 -102t62 -221q0 -125 -26 -233.5t-67.5 -184t-95.5 -137t-107 -99 t-104.5 -62.5t-86.5 -34.5t-55 -9.5q-35 0 -122 20.5t-98 20.5l-104 -43q-11 2 -20 8t-12 11zM279 125q45 -19 109.5 -34.5t106 -21.5t52.5 -6q49 0 100 48t91 126t65.5 185.5t25.5 218.5q0 108 -36 173t-97 65q-67 0 -158 -103t-161 -245.5t-82 -251.5z" />
<glyph unicode="c" horiz-adv-x="837" d="M92 285q0 124 27 232.5t69.5 183.5t97 136.5t108 98.5t103 62t81.5 34.5t45 9.5q29 0 182 -26q0 -9 -3.5 -31t-18.5 -60.5t-38 -64.5q-160 80 -223 80q-40 0 -85.5 -46.5t-85 -122.5t-65.5 -186.5t-26 -226.5q0 -113 43 -193.5t113 -80.5q74 0 145 30.5t162 92.5 q22 -6 29 -41l-250 -164q-8 -6 -25.5 -15t-57 -18.5t-81.5 -9.5q-82 0 -139.5 49t-82 120.5t-24.5 156.5z" />
<glyph unicode="d" horiz-adv-x="1124" d="M96 264q0 126 30.5 237t78.5 188t109 140t120.5 101.5t115 65t90.5 36.5t48 10q28 0 150 -20q5 39 19 142.5t22.5 166.5t16 135t7.5 105q0 44 -13 61.5t-44 22.5l-133 6q-6 24 -6 27q0 6 6 24q190 28 350 82q15 0 24 -18l-137 -1012q-47 -327 -47 -488q0 -137 41 -137 q5 0 27.5 8t53.5 19t46 16q19 -13 19 -49q-183 -74 -302 -182l-34 16q-19 125 -19 205q0 74 21 289q-247 -416 -492 -502q-75 10 -121.5 95.5t-46.5 209.5zM256 346q0 -104 26 -163.5t68 -59.5q72 0 176 107t186 259t97 271l16 135q-42 13 -99.5 24t-93.5 16t-44 5 q-76 0 -154 -88.5t-128 -228t-50 -277.5z" />
<glyph unicode="e" horiz-adv-x="837" d="M88 311q0 230 126.5 430.5t342.5 300.5q116 0 180 -44t64 -156q0 -96 -60 -172t-170 -148q-73 -50 -158.5 -84t-158.5 -45q0 -137 40.5 -223t115.5 -86q74 0 145 30.5t164 92.5q9 -2 17 -13t9 -28l-247 -164q-64 -43 -164 -43q-123 0 -184.5 98t-61.5 254zM256 440 q134 30 246 125q131 117 131 223q0 170 -117 170q-44 0 -101.5 -78t-103 -201t-55.5 -239z" />
<glyph unicode="f" horiz-adv-x="591" d="M-360 -729q20 101 81 149q61 -45 125 -75.5t97 -30.5q52 0 110 133.5t80 333.5l127 1137l-143 -3q-13 7 -13 21q18 45 25 74h139l27 200q14 99 45 182.5t69.5 139t85.5 98.5t89 67t83 39.5t65.5 20t37.5 4.5q105 0 231 -80q-1 -4 -3.5 -12t-11 -29t-20 -39t-31 -38 t-42.5 -31q-57 60 -116.5 100.5t-90.5 40.5q-44 0 -96.5 -61.5t-93.5 -158t-52 -191.5l-28 -252q102 0 231 8q5 -2 10 -9.5t5 -15.5q-20 -35 -25 -73h-234l-108 -1061q-12 -122 -40.5 -222t-63.5 -164.5t-78.5 -113.5t-81 -74t-75 -40.5t-57.5 -19t-32 -3.5q-97 0 -227 49z " />
<glyph unicode="g" horiz-adv-x="1021" d="M-82 -530q0 55 39 120.5t87.5 117.5t134 141t138.5 151q-229 46 -229 285q0 121 40.5 233t104 194t144 148.5t159 105.5t150.5 56q3 1 26 4t43.5 6t45.5 7t44.5 8.5t28.5 9.5l87 49q17 -2 24 -19l-29 -126q-32 -144 -82 -510q-30 -218 -30 -451v-174q0 -110 -34.5 -208.5 t-92.5 -169.5t-131.5 -123t-153 -77.5t-156.5 -25.5q-163 0 -260.5 61t-97.5 187zM80 -475q0 -36 13.5 -69.5t43.5 -65.5t89 -51t141 -19q335 0 335 467q0 32 -3 118t-3 142q0 179 27 387q-35 -71 -116 -174t-168 -202t-169.5 -198t-136 -188.5t-53.5 -146.5zM246 344 q0 -33 2.5 -58t12 -53t25.5 -46t44.5 -30t68.5 -12q48 0 129 99t155 247.5t101 276.5l35 160q-122 0 -239 -10q-71 -7 -149.5 -96t-131.5 -222t-53 -256z" />
<glyph unicode="h" horiz-adv-x="1120" d="M104 -41l150 1165q51 395 51 447q0 44 -14 62.5t-47 21.5q-63 6 -129 6q-6 24 -6 25q0 7 1.5 13.5t3.5 9.5l1 3q103 15 172.5 30.5t177.5 51.5q17 0 24 -18l-176 -1284q210 469 451 550q197 0 197 -264q0 -100 -34 -296t-34 -230q0 -60 7 -81t34 -21q7 0 100 32 q9 -5 14 -17.5t6 -22.5l1 -9q-99 -40 -161 -78.5t-140 -103.5l-33 14q-6 29 -6 94q0 119 43 343.5t43 293.5q0 98 -25.5 140.5t-73.5 42.5q-47 0 -114 -62t-128.5 -154.5t-110.5 -211t-60 -220.5l-25 -231z" />
<glyph unicode="i" horiz-adv-x="557" d="M80 844q73 40 164 105.5t135 107.5l37 -10q2 -25 2 -66q0 -119 -24 -270.5t-48 -282t-24 -199.5q0 -33 5.5 -54.5t12 -28.5t12.5 -7q15 0 131 43q19 -14 19 -49q-104 -43 -172.5 -84.5t-132.5 -97.5l-33 14q-17 35 -17 125q0 99 48.5 335.5t48.5 328.5q0 84 -37 84 q-9 0 -45.5 -14.5t-63.5 -28.5q-18 18 -18 49zM346 1509q25 40 55.5 64.5t83.5 42.5q31 -28 51.5 -64.5t20.5 -66.5q0 -31 -49 -67t-92 -36q-30 85 -70 127z" />
<glyph unicode="j" horiz-adv-x="518" d="M-154 -745l95 90q74 73 113.5 182t68.5 323l92 691q21 150 21 194q0 103 -41 103q-21 0 -105 -43q-7 4 -15.5 21t-8.5 28q72 39 160 104t134 109l35 -10q6 -46 6 -99q0 -66 -7.5 -142t-21.5 -179t-18 -135l-75 -607q-27 -215 -77.5 -326.5t-174.5 -213.5l-152 -129 q-29 7 -29 39zM303 1509q25 40 55.5 64.5t83.5 42.5q31 -28 51.5 -64.5t20.5 -66.5q0 -31 -50 -67t-93 -36q-31 88 -68 127z" />
<glyph unicode="k" horiz-adv-x="1007" d="M104 -41l150 1165q51 395 51 447q0 44 -14 62.5t-47 21.5q-59 6 -129 6q-6 24 -6 25q0 7 1.5 13.5t3.5 9.5l1 3q103 15 172.5 30.5t177.5 51.5q17 0 24 -18l-170 -1254q206 432 445 520q94 -14 139 -65t45 -125q0 -121 -73.5 -221t-192.5 -150q0 -40 18.5 -126t56 -167.5 t77.5 -81.5q6 0 16.5 3t19.5 6.5t26.5 10.5t29.5 11q16 -14 16 -49q-72 -27 -139.5 -66t-97.5 -69l-39 14q-42 83 -88.5 242.5t-53.5 271.5q125 49 193.5 140.5t68.5 171.5q0 44 -19.5 71t-53.5 27q-49 0 -107 -46t-109 -118t-95.5 -154t-73 -160.5t-33.5 -131.5l-31 -281z " />
<glyph unicode="l" horiz-adv-x="532" d="M115 1686q0 7 1.5 13.5t3.5 9.5l1 3q103 15 172 30.5t176 51.5q21 0 25 -18l-86 -643q-5 -40 -29 -209t-34.5 -250.5t-22 -202t-11.5 -195.5q0 -135 41 -135q6 0 131 45q19 -14 19 -49q-71 -28 -133 -64t-92.5 -59t-79.5 -63l-35 16q-17 84 -17 189q0 150 21 305l90 663 q5 39 16 117t16 113.5t11.5 86t9 80.5t2.5 50q0 44 -14.5 63t-48.5 21q-59 6 -127 6q-6 12 -6 25z" />
<glyph unicode="m" horiz-adv-x="1632" d="M49 844q70 38 154.5 102.5t132.5 110.5l35 -10q8 -55 8 -129q0 -49 -4 -110t-7.5 -97.5t-12.5 -113t-11 -95.5q176 455 404 540q178 0 178 -264q0 -92 -31 -270q183 457 401 534q179 0 179 -264q0 -100 -34 -296t-34 -230q0 -60 7 -81t34 -21q10 0 42.5 10t57.5 22 q19 -15 19 -49q-97 -39 -160 -77t-152 -105l-32 14q0 130 23.5 277.5t47 268.5t23.5 185q0 99 -22.5 141t-65.5 42q-41 0 -100 -61.5t-113.5 -154.5t-98 -211.5t-55.5 -222.5l-26 -239l-156 -31q90 625 90 731q0 189 -90 189q-56 0 -136.5 -100t-147.5 -254.5t-83 -293.5 l-26 -241l-156 -31l76 559q16 132 16 187q0 133 -53 133q-12 0 -96 -43q-7 6 -16 23.5t-9 25.5z" />
<glyph unicode="n" horiz-adv-x="1138" d="M49 844q70 38 154.5 102.5t132.5 110.5l35 -10q8 -55 8 -129q0 -62 -6.5 -133t-19 -166.5t-15.5 -126.5q211 470 448 550q195 0 195 -264q0 -100 -35 -296t-35 -230q0 -59 7.5 -80.5t33.5 -21.5q29 0 103 32q18 -18 18 -49q-98 -39 -161.5 -78t-149.5 -104l-33 14 q0 130 23 277t46 268t23 186q0 99 -24.5 141t-73.5 42q-61 0 -151.5 -99.5t-166.5 -255t-92 -293.5l-26 -241l-156 -31l76 559q16 132 16 187q0 133 -53 133q-12 0 -96 -43q-7 6 -16 23.5t-9 25.5z" />
<glyph unicode="o" horiz-adv-x="1042" d="M92 344q0 226 121 408q49 73 117 132.5t131 91.5t112.5 49t75.5 17q130 0 215.5 -107t85.5 -282q0 -207 -92 -377q-37 -69 -89 -125.5t-102 -91t-101 -58t-87.5 -33t-58.5 -9.5q-133 0 -230.5 105t-97.5 280zM270 399q0 -348 211 -348q82 0 152 84.5t107.5 210 t37.5 254.5q0 161 -48.5 254.5t-147.5 93.5q-90 0 -163 -84t-111 -209t-38 -256z" />
<glyph unicode="p" horiz-adv-x="1091" d="M-109 -713l3 25q84 10 115.5 42.5t45.5 96.5q45 201 109 678l51 389q16 106 16 187q0 141 -43 141q-15 0 -129 -43q-7 5 -11.5 22t-4.5 27q72 39 154 99.5t129 105.5l34 -10q23 -76 23 -179q0 -70 -21 -268q219 368 441 442q92 -12 151.5 -102t59.5 -221 q0 -119 -25 -221.5t-65.5 -174t-92.5 -129.5t-104 -93t-102.5 -59t-85 -33t-54.5 -9h-192q-74 -526 -74 -600q0 -66 17 -66q49 -4 208 -4q7 -17 7 -35q0 -20 -7 -32h-315q-130 0 -229 -8q-9 15 -9 32zM305 125q43 -7 110.5 -12.5t110 -7t56.5 -1.5q64 0 126.5 74t103 200 t40.5 263q0 108 -34.5 173t-94.5 65q-58 0 -134.5 -69.5t-142 -175t-94.5 -206.5q-36 -169 -47 -303z" />
<glyph unicode="q" horiz-adv-x="1038" d="M82 256q0 199 88.5 356t222.5 258q65 50 141.5 87t116.5 49.5t62 15.5q138 15 145 18l107 41q10 0 24 -14q-63 -333 -90 -537q-74 -526 -104.5 -763.5t-30.5 -317.5q0 -117 121 -127q6 -13 6 -27q0 -16 -8 -26q-202 -8 -252 -12l-269 -21q-8 20 -8 35l6 33q164 12 203 18 q18 4 99 553l86 586q-8 -11 -46 -64.5t-59.5 -82t-63 -82t-74.5 -88t-75 -75t-83.5 -67.5t-82.5 -43q-75 13 -128.5 91.5t-53.5 205.5zM240 328q0 -95 25 -150t77 -55q62 0 158.5 100.5t181 252t111.5 284.5l34 168q-137 0 -219 -10q-51 -6 -113 -53t-119.5 -121.5 t-96.5 -185.5t-39 -230z" />
<glyph unicode="r" horiz-adv-x="808" d="M49 844q70 38 154.5 102.5t132.5 110.5l35 -10q12 -71 12 -148q0 -92 -14 -211q36 74 69 129t94.5 122t131.5 103q95 0 172 -28q-17 -64 -32 -149t-22 -138l-6 -53q-13 -4 -31 -4q-14 0 -30 4l-19 186q-34 19 -80 19q-45 0 -103.5 -66t-105 -159t-61.5 -173 q-34 -208 -59 -491l-156 -31l76 559q16 132 16 187q0 133 -53 133q-12 0 -96 -43q-7 6 -16 23.5t-9 25.5z" />
<glyph unicode="s" horiz-adv-x="866" d="M41 33l88 278q28 0 49 -14q-6 -24 -6 -125q0 -47 2 -63q17 -27 68.5 -50.5t140.5 -23.5q66 0 117 50.5t51 127.5q0 60 -40 118t-96.5 106t-113.5 97t-97 110.5t-40 127.5q0 132 103 205.5t249 73.5q66 0 143 -16t127 -38q-35 -99 -59 -249q-12 -3 -25 -3q-20 0 -24 7 l-16 176q-70 53 -197 53q-80 0 -117 -40t-37 -107q0 -45 43 -101t104 -111t122 -112.5t104 -123t43 -124.5q0 -129 -108 -216t-259 -87q-82 0 -178 23.5t-141 50.5z" />
<glyph unicode="t" horiz-adv-x="636" d="M84 936q23 48 29 74h135q21 0 35 101.5t14 143.5q9 3 24 11t58 40.5t80 75.5q23 0 35 -12q-50 -215 -70 -360q91 0 199 12q14 -9 14 -25q-22 -35 -31 -77h-198l-62 -369q-14 -88 -24.5 -189t-10.5 -135q0 -32 8 -46.5t31 -14.5q64 0 209 53q16 -21 16 -61 q-140 -57 -207.5 -93.5t-187.5 -113.5l-33 14q-8 33 -8 107q0 109 27.5 296.5t54.5 343.5t27 187q0 19 -12 19q-29 0 -140 -3q-12 6 -12 21z" />
<glyph unicode="u" horiz-adv-x="1130" d="M72 844q146 106 266 213l37 -10q8 -66 8 -107q0 -90 -39 -317.5t-39 -288.5q0 -29 0.5 -47.5t5 -53t13 -55.5t26.5 -38t43 -17q72 0 165 114.5t168 281t103 317.5l33 174l152 24q-1 -7 -24.5 -141t-43 -250.5t-37.5 -237t-18 -151.5q0 -115 27 -115q21 0 131 43 q18 -11 18 -49q-67 -27 -119.5 -57.5t-83 -54t-84.5 -70.5l-32 14q-13 44 -13 125q0 181 43 426q-46 -115 -108 -222t-152 -203t-182 -132q-81 0 -135 66t-54 198q0 109 38 326t38 303q-5 0 -27 -10t-53.5 -25.5t-46.5 -21.5q-9 7 -15 19.5t-7 21.5z" />
<glyph unicode="v" horiz-adv-x="882" d="M23 811q53 56 91 98t76 84.5t66 73.5l33 -2q27 -55 45 -131.5t23.5 -125t12.5 -147t9 -120.5q5 -60 10 -162t7 -174l3 -72q115 107 191.5 218t106.5 194t30 149q0 81 -25.5 130.5t-78.5 78.5q50 109 141 152q86 -52 86 -172q0 -216 -140.5 -456t-416.5 -468h-29 q-24 445 -49 666q-9 96 -25 157.5t-34 61.5q-4 0 -11.5 -4.5t-18.5 -13t-21 -17t-24.5 -20t-23.5 -19.5q-27 10 -34 41z" />
<glyph unicode="w" horiz-adv-x="1460" d="M41 811q29 30 114 123.5t121 132.5l33 -2q22 -44 37 -95t24.5 -116.5t13.5 -101.5t9 -116t6 -95q4 -59 9 -161t8 -174l2 -73q171 183 244 345t73 358q0 62 -47 147q18 12 62.5 38.5t68.5 45.5l33 -2q38 -75 65 -178t45 -247t26.5 -237.5t21.5 -269.5q158 157 228.5 300.5 t70.5 252.5q0 156 -115 217q44 108 133 152q50 -28 71 -73.5t21 -129.5q0 -214 -123 -441t-385 -452h-26q-51 470 -88 678q-109 -349 -486 -678h-26q-27 437 -49 666q-9 93 -26.5 156t-35.5 63q-3 0 -10.5 -4.5t-18 -13l-21 -17t-24.5 -20t-24 -19.5q-22 7 -35 41z" />
<glyph unicode="x" horiz-adv-x="980" d="M-33 18q13 44 38.5 86t53.5 68q40 -43 78 -43q62 0 127.5 80t145.5 227q-160 391 -189 391q-14 0 -115 -84q-11 2 -19.5 12t-11.5 19l-3 10q134 137 223 263l33 -5q19 -37 44.5 -95.5t42 -99.5t49 -123t42.5 -108q51 96 91 161t90.5 131.5t102 100t103.5 33.5 q27 0 62 -18t59 -41q-32 -93 -96 -154q-39 45 -82 45q-38 0 -77.5 -25t-78.5 -74t-73 -101.5t-75 -126.5q64 -159 108.5 -253t71 -129.5t44.5 -35.5q5 0 31.5 10t65 26t50.5 21q9 -6 14.5 -18.5t6.5 -21.5l2 -9q-70 -38 -149.5 -90t-121.5 -88h-32q-51 83 -86.5 162.5 t-100.5 245.5q-40 -75 -67.5 -124.5t-66.5 -108.5t-71 -93.5t-71 -58t-76 -23.5q-26 0 -60.5 18.5t-56.5 40.5z" />
<glyph unicode="y" horiz-adv-x="858" d="M-424 -614q6 34 33 55q56 -29 82 -29q70 0 154.5 42t169.5 114t154.5 142t139.5 151q-72 533 -81 591q-61 388 -115 392q-3 0 -7.5 -2.5t-11 -7t-12.5 -9.5t-14.5 -13t-14.5 -13.5t-15.5 -15t-14.5 -13.5q-29 9 -33 41q119 143 205 256l36 -2q60 -98 107 -363t94 -688 q118 165 190 358.5t72 340.5q0 79 -26 120t-76 70q58 112 139 152q94 -48 94 -162q0 -186 -98 -455t-287 -518q-166 -217 -323 -359.5t-361 -281.5q-8 2 -33.5 18.5t-67.5 42.5t-79 46z" />
<glyph unicode="z" horiz-adv-x="862" d="M0 8q50 39 103.5 104.5t111.5 149.5t78 109q70 91 152 204t132 179.5t85 105.5q-87 17 -226 17q-98 0 -152 -10t-73 -40q-22 -35 -47 -98q-36 0 -55 16q5 24 14 68.5t13 66t9.5 51.5t8.5 51.5t4 41.5q90 -14 309 -14q256 0 375 12q9 -5 14 -15t6 -17v-7 q-73 -74 -156.5 -178t-140.5 -182t-162 -228q-15 -21 -47.5 -67t-62.5 -89.5t-55 -84.5q27 2 55 2q51 0 155 -28t158 -28q73 0 92 37l78 131q27 0 49 -14q-55 -162 -71 -270q-76 -31 -121 -31q-68 0 -187.5 28.5t-201.5 28.5q-63 0 -107 -7.5t-114 -27.5q-9 4 -14.5 12.5 t-6.5 14.5z" />
<glyph unicode="{" horiz-adv-x="665" d="M150 735q35 35 62.5 76t44 74.5t33 89.5t24 88t22.5 102q98 458 139 604l238 80q22 -13 22 -53q-94 -53 -139 -92q-39 -33 -89 -314t-67 -505q-2 -3 -6 -8t-19 -21t-34 -33t-51.5 -41t-69.5 -47q52 -36 89.5 -78.5t48.5 -66.5l12 -25q-17 -219 -17 -491q0 -366 33 -402 q18 -19 47 -41t49 -35l19 -12q-1 -15 -7 -27.5t-12 -18.5l-6 -5l-227 84q-12 146 -29 686q-3 84 -6.5 129.5t-14 108.5t-32.5 109.5t-57 84.5z" />
<glyph unicode="|" horiz-adv-x="581" d="M115 -850q9 48 20 137t20 179.5t20 209.5t17 194.5t13 169t8 99.5l123 1581q48 11 100 33q9 0 16 -4.5t10 -8.5l3 -5q-32 -165 -98 -990l-123 -1581q-56 -12 -103 -32q-8 0 -14.5 4.5t-8.5 9.5z" />
<glyph unicode="}" horiz-adv-x="737" d="M-14 -412q96 52 143 99q39 37 92.5 339.5t73.5 538.5q6 10 17.5 27t58 62t104.5 81q-51 36 -88.5 73.5t-48.5 57.5l-12 19q18 221 18 465q0 320 -33 356q-18 18 -46.5 40.5t-48.5 35.5l-19 14q1 16 7 29.5t12 18.5l5 5l221 -80q23 -250 35 -604q2 -71 4 -102t8.5 -88 t17 -90t31 -74t50.5 -76q-43 -38 -74 -84t-52.5 -110t-32.5 -108.5t-28 -129.5q-86 -437 -149 -686l-244 -82q-22 19 -22 53z" />
<glyph unicode="~" horiz-adv-x="1239" d="M82 727q27 17 79 52t78.5 51.5t62.5 37.5t59.5 30t41.5 9q27 0 63 -7.5t99 -24.5t99 -25q132 -41 254 -41q34 0 64 6t45 11.5t52 22.5t54 25q24 -24 24 -49q-25 -17 -75 -51.5t-75.5 -51t-60.5 -38t-58.5 -30.5t-41.5 -9q-16 0 -36.5 2.5t-50 9.5t-51 12t-64 16t-64.5 17 q-152 41 -254 41q-34 0 -64 -6t-47.5 -12.5t-52.5 -22t-56 -24.5q-24 24 -24 49z" />
<glyph unicode="&#xa1;" horiz-adv-x="475" d="M10 -563q9 44 37 172t47.5 224.5t50 292.5t58.5 429q2 17 22 33.5t54 19.5q-3 -203 -21.5 -424t-35.5 -367t-17 -175t26 -29q7 0 21 4.5t24 8.5l11 5q10 -7 16.5 -21t8.5 -24l1 -10q-5 -4 -137 -79.5t-135 -78.5q-10 1 -18 5.5t-11 8.5zM172 924q0 34 53.5 76t100.5 42 q33 -98 75 -149q-26 -43 -60 -71.5t-89 -49.5q-36 34 -58 75.5t-22 76.5z" />
<glyph unicode="&#xa2;" horiz-adv-x="817" d="M92 293q0 129 26 241.5t65.5 189.5t94 141t101.5 100.5t98 64.5l23 230q30 5 67 20q12 0 21 -12q-16 -81 -29 -203q21 8 37 8q29 0 172 -26q0 -11 -3 -33t-16.5 -62.5t-35.5 -66.5q-90 49 -164 71l-76 -860q84 21 217 119q23 -13 25 -43l-250 -180l-23 -240 q-7 -2 -65 -22q-6 0 -12 3.5t-9 6.5l-2 4q17 117 29 221q-24 -6 -57 -6q-59 0 -105.5 29t-73.5 77t-41 106t-14 122zM248 369q0 -115 41 -198t106 -83q78 839 78 873q-81 -34 -153 -205.5t-72 -386.5z" />
<glyph unicode="&#xa3;" horiz-adv-x="940" d="M55 18q76 58 114.5 166t57.5 316q-33 0 -98 -6q-12 6 -12 24q20 38 24 66h90q11 101 50.5 187.5t88 140t101 92t88 54t49.5 15.5q61 0 134.5 -18t109.5 -37q-12 -29 -49 -225q-12 -9 -27 -9q-16 0 -24 4q0 3 -17 156q-9 10 -24.5 21.5t-51 23.5t-77.5 12 q-64 0 -123 -111.5t-84 -305.5q180 0 291 14q12 -2 12 -25q-12 -18 -25 -71h-284l-7 -45q-33 -232 -131 -357q66 -4 203 -4q126 0 228 37q60 131 77 176q8 2 17 2q25 0 39 -18q-45 -199 -52 -242q-4 -20 -7 -29.5t-5.5 -12t-7.5 -3.5q-45 -12 -201 -12q-42 0 -103 2t-65 2 h-67q-141 0 -221 -21q-4 5 -7 15.5t-3 17.5z" />
<glyph unicode="&#xa4;" horiz-adv-x="1146" d="M104 113l5 10q77 43 213 174q-43 75 -43 168q0 143 79 256l-131 156q38 42 78 108q4 4 8 4l9 -4q27 -78 110 -199q81 52 207 74q89 0 162 -57l160 186q39 -39 94 -63q2 -2 2 -8l-6 -11q-64 -41 -193 -170q45 -73 45 -166q0 -71 -22.5 -142.5t-67.5 -119.5q27 -31 66 -73 t65 -68l25 -27q-32 -36 -76 -114q-2 -2 -8 -2l-8 2q-30 82 -140 219q-83 -53 -194 -68q-93 0 -164 53q-33 -33 -78.5 -81t-74.5 -80l-29 -31q-36 33 -91 65q-2 2 -2 9zM401 489q0 -94 41 -152t121 -58q62 0 106 27t66 72t31.5 91t9.5 98q0 85 -38 139t-115 54 q-109 0 -165.5 -77.5t-56.5 -193.5z" />
<glyph unicode="&#xa5;" horiz-adv-x="1073" d="M55 1014q0 12 4 28q46 0 120.5 4.5t88.5 4.5q15 0 68 -73.5t117.5 -195t95.5 -227.5q21 48 31.5 71.5t39.5 84t50.5 97.5t55 88.5t61.5 81t62.5 51.5t65.5 22q26 0 52 -11.5t39 -22.5l12 -11q-35 -62 -76 -105q-4 4 -11.5 10.5t-10 8.5t-8.5 6t-10 5t-10.5 2t-14.5 1 q-41 0 -104.5 -87.5t-125.5 -209.5q122 0 260 12q13 -4 13 -24q-26 -53 -27 -70h-281q-38 -95 -45 -156q122 0 287 13q14 -5 14 -25q-24 -43 -26 -70h-283q-4 -86 -4 -249q47 -11 139 -11q2 -14 2 -24t-2 -20t-4 -15l-2 -4q-41 0 -114.5 3t-88.5 3q-141 0 -258 -16 q-4 14 -4 30l6 21q56 9 92.5 23t54.5 33t24.5 33.5t11.5 37.5q13 61 16 155q-108 0 -303 -14q-12 9 -12 25q20 41 26 71h293q0 55 -33 156q-60 0 -221 -14q-14 8 -14 24q21 38 26 72h170q-47 94 -172 287q-24 35 -48.5 48t-82.5 17q-2 5 -2 25z" />
<glyph unicode="&#xa6;" horiz-adv-x="581" d="M125 -850l102 1161q41 11 92 33q8 0 14.5 -4.5t8.5 -9.5l2 -4q-12 -70 -30 -233t-31.5 -300.5t-32.5 -345.5t-23 -250zM254 614l96 1106q66 18 101 33q8 0 14 -4.5t8 -8.5l2 -5q-42 -216 -115 -1073z" />
<glyph unicode="&#xa7;" horiz-adv-x="1284" d="M51 -360l107 350q39 0 69 -17q-12 -110 -12 -188q0 -20 6 -74q15 -25 60 -43t110 -18q102 0 183 101t81 241q0 63 -25 128t-65 122t-88 116.5t-96 121.5t-88 125t-65 139.5t-25 154.5q0 158 93 299.5t243 225t313 83.5q78 0 168 -14t141 -29q-47 -179 -78 -415 q-19 -7 -36 -7q-19 0 -37 9q0 42 -7 187t-12 171q-2 0 -10.5 3t-17.5 5t-26.5 4t-37.5 2q-115 0 -200 -86.5t-85 -220.5q0 -59 25.5 -117t66 -110t89.5 -106.5t97.5 -115t89 -126.5t66 -151.5t25.5 -178.5q0 -134 -53 -256.5t-141 -209t-207 -138t-246 -51.5 q-95 0 -209.5 26.5t-165.5 57.5zM346 956q0 -70 25 -142.5t65.5 -135.5t89 -127t97.5 -126.5t89.5 -123.5t65.5 -129t25 -133q0 -101 -37.5 -180t-112.5 -164q126 58 202.5 181t76.5 278q0 90 -25.5 171t-66.5 142t-90 118.5t-98.5 111.5t-90.5 108t-66.5 121t-25.5 139 q0 136 115 287q-107 -67 -172.5 -169t-65.5 -227z" />
<glyph unicode="&#xa8;" d="M326 1386q23 39 54.5 64t84.5 43q31 -28 50.5 -64t19.5 -67t-49.5 -66.5t-92.5 -35.5q-31 88 -67 126zM680 1386q25 40 55.5 64.5t83.5 42.5q31 -28 51.5 -64.5t20.5 -66.5q0 -31 -50 -66.5t-93 -35.5q-31 86 -68 126z" />
<glyph unicode="&#xa9;" horiz-adv-x="1779" d="M123 731q0 127 38.5 245.5t109.5 214t165.5 167t211.5 110.5t243 39q157 0 299 -61t244 -165t162.5 -247.5t60.5 -302.5q0 -211 -102 -389t-278.5 -281.5t-385.5 -103.5q-157 0 -299.5 61t-245 165t-163 247t-60.5 301zM231 731q0 -185 89.5 -342.5t241.5 -248.5t329 -91 q133 0 254.5 54t209.5 145t140.5 217.5t52.5 265.5t-52.5 265.5t-140.5 218t-209.5 146t-254.5 54.5q-177 0 -329 -91.5t-241.5 -249.5t-89.5 -343zM477 727q0 86 22.5 158t57.5 119.5t80.5 85t89 58.5t85.5 34.5t67.5 17.5t38.5 4q122 0 284 -49q-14 -56 -31 -229 q-24 -6 -26 -6q-15 0 -29 4q0 3 -29 147q-33 18 -54.5 27t-64.5 16.5t-102 7.5q-62 0 -115.5 -47.5t-83.5 -123t-30 -158.5q0 -77 17 -146.5t50.5 -128t90.5 -93t131 -34.5q64 0 114 14.5t148 55.5q14 -12 14 -35l-172 -123l-8 -3q-7 -3 -16 -7t-23.5 -8.5t-29 -8t-33 -6 t-35.5 -2.5q-101 0 -180.5 37t-128.5 101.5t-74 146t-25 174.5z" />
<glyph unicode="&#xaa;" horiz-adv-x="702" d="M109 1075q0 111 51.5 197.5t126.5 138.5q38 27 82 47.5t66 26.5t34 8q13 0 45.5 4t40.5 8l57 21q9 0 13 -8q-66 -378 -66 -439q0 -32 2 -42.5t12 -10.5t74 29q15 -11 15 -37q-118 -55 -187 -107l-24 4q-15 18 -15 76q0 55 21 166q-47 -85 -110 -148.5t-134 -93.5 q-40 7 -72 50.5t-32 109.5zM227 1114q0 -108 45 -108q21 0 66.5 53t92 137t63.5 156l20 84q-78 0 -111 -4q-54 -7 -115 -100.5t-61 -217.5z" />
<glyph unicode="&#xab;" horiz-adv-x="1030" d="M109 494l4 28q287 225 450 393q15 -2 25.5 -11.5t13.5 -17.5l4 -9l-321 -375l209 -404q-17 -30 -54 -32q-56 91 -151 215t-180 213zM428 494l4 28q291 228 451 393q15 -2 25.5 -11.5t13.5 -17.5l4 -9l-322 -375l209 -404q-16 -30 -53 -32q-56 90 -151.5 214t-180.5 214z " />
<glyph unicode="&#xac;" horiz-adv-x="1005" d="M82 608q23 57 35 105h792l-10 -107q-14 -126 -14 -321q-11 -21 -31 -21q-49 21 -94 29l26 303h-395q-131 0 -295 -16q-14 8 -14 28z" />
<glyph unicode="&#xad;" horiz-adv-x="710" d="M49 465q22 49 35 98h293q124 0 252 19q16 -8 16 -33q-29 -57 -37 -96h-291q-123 0 -251 -19q-17 8 -17 31z" />
<glyph unicode="&#xae;" horiz-adv-x="1128" d="M68 1022q0 215 145.5 362.5t357.5 147.5q211 0 356.5 -147.5t145.5 -362.5q0 -139 -66.5 -255.5t-182 -183.5t-253.5 -67q-139 0 -255 67t-182 183.5t-66 255.5zM166 1022q0 -113 54.5 -210t148 -154.5t202.5 -57.5t202.5 57.5t148.5 154.5t55 210q0 175 -120 300.5 t-286 125.5t-285.5 -125.5t-119.5 -300.5zM344 788l2 21q21 6 33 16t14.5 18t5.5 23q4 35 4 160q0 121 -2 168q0 59 -8 59q-9 7 -39 7q-2 8 -2 18q0 8 2 14h213q193 0 193 -143q0 -54 -31.5 -90.5t-83.5 -50.5q14 -41 37 -88q38 -60 56 -77.5t38 -17.5h33q8 -12 8 -24 q0 -15 -4 -21q-33 -2 -65 -5t-49.5 -5t-20.5 -2q-9 0 -30.5 44.5t-48.5 108.5t-34 78h-14q-34 0 -57 2v-100q0 -56 4 -76q16 -8 61 -8q4 -12 4 -24q0 -15 -4 -21h-209q-6 0 -6 16zM494 1049q8 -2 53 -2q50 0 82.5 26t32.5 68q0 46 -24.5 75t-72.5 29q-42 0 -65 -2 q-6 -53 -6 -194z" />
<glyph unicode="&#xaf;" horiz-adv-x="1277" d="M293 1243q29 53 43 92q426 0 639 15q14 -8 14 -33q-24 -34 -45 -90q-380 0 -639 -15q-12 8 -12 31z" />
<glyph unicode="&#xb0;" horiz-adv-x="843" d="M96 1124q0 86 32.5 156t88 115.5t120.5 73t138 38.5q109 0 177.5 -74.5t68.5 -189.5q0 -86 -29.5 -154.5t-82 -114t-118.5 -74t-147 -42.5q-109 0 -178.5 74.5t-69.5 191.5zM231 1161q0 -95 41.5 -156t120.5 -61q92 0 144.5 79.5t52.5 182.5q0 93 -39.5 153t-118.5 60 q-92 0 -146.5 -74.5t-54.5 -183.5z" />
<glyph unicode="&#xb1;" horiz-adv-x="1064" d="M113 14q7 19 32 99h445q177 0 350 18q12 -8 12 -33q-9 -19 -19 -54.5t-13 -43.5h-447q-174 0 -348 -16q-12 5 -12 30zM113 584q2 6 32 98h338q18 158 23 342q9 18 29 18q14 -7 29 -11.5t36.5 -8.5t30.5 -6l-39 -334q156 0 348 20q12 -7 12 -32q-9 -19 -19 -54.5 t-13 -44.5h-340q-1 -9 -4.5 -38t-4 -35.5t-3.5 -30t-3.5 -31t-2.5 -27.5t-2 -30.5t-1.5 -29.5t-2 -34.5t-1 -36t-0.5 -42.5q-6 -21 -29 -21q-30 14 -94 29l37 327q-141 0 -344 -16q-12 4 -12 29z" />
<glyph unicode="&#xb2;" horiz-adv-x="655" d="M68 657l211 238q46 52 76 90t62 103.5t32 121.5q0 46 -24 74.5t-67 28.5q-20 0 -40 -4.5t-46.5 -13.5t-33.5 -11l-27 -123q-6 -6 -25 -6t-28 6q-2 140 -2 156q3 10 14 16l213 66q88 0 144.5 -41.5t56.5 -130.5q0 -46 -24.5 -97.5t-48 -82t-71.5 -86.5l-204 -240h108 q146 0 162 31l45 94q36 0 55 -12q-39 -92 -57 -195q-41 -18 -121 -18q-10 0 -60 1t-75 1h-217q-8 16 -8 34z" />
<glyph unicode="&#xb3;" horiz-adv-x="661" d="M80 647q12 60 67 109q106 -86 156 -86q62 0 99.5 63t37.5 129q0 120 -172 152l174 270h-104q-49 0 -107 -8l-18 -90q-10 -6 -27 -6q-14 0 -24 6q2 168 4 188q0 10 12 10h250q79 0 154 11q10 -5 10 -27l-176 -272q88 -32 121.5 -81.5t33.5 -121.5q0 -120 -94 -206.5 t-207 -86.5q-112 0 -190 47z" />
<glyph unicode="&#xb4;" d="M571 1212q25 23 65.5 63t137.5 150t160 203q84 -20 108 -102q-69 -73 -178.5 -161t-184.5 -139l-75 -52q-13 7 -21 16.5t-10 15.5z" />
<glyph unicode="&#xb6;" horiz-adv-x="1718" d="M162 795q0 105 26 205t80.5 189t131 155.5t185 105.5t234.5 39q304 0 363 -4l-119 -1346q-8 -83 -12.5 -123t-15 -99.5t-25.5 -98t-40.5 -87t-62.5 -98.5l51 25q204 100 238 481l59 707q35 410 50 629q273 -7 276 -7q6 -12 6 -34q0 -10 -2 -20t-4 -14l-2 -5q-39 4 -66 4 q-37 0 -47 -23q-9 -24 -26 -139.5t-31 -267.5l-72 -813q-19 -218 -84.5 -363t-203.5 -201l-445 -180q-33 20 -33 62l2 24l129 66q40 20 72.5 57.5t54.5 91t37 103.5t25.5 121t15.5 116t11 113l106 1237q-57 6 -106 6q-74 0 -135 -52t-98.5 -132t-63 -181.5t-36 -194.5 t-10.5 -177q0 -162 36.5 -249t109.5 -87h76q6 -10 6 -39q-1 -9 -3.5 -18t-4.5 -14l-2 -5h-56q-14 0 -57.5 -3t-67.5 -3q-212 0 -331 147.5t-119 393.5z" />
<glyph unicode="&#xb7;" horiz-adv-x="325" d="M23 604q26 44 60 73t89 50q36 -34 58 -75.5t22 -76.5q0 -34 -53.5 -76t-100.5 -42q-33 98 -75 147z" />
<glyph unicode="&#xb8;" horiz-adv-x="837" d="M63 -530q0 9 2.5 17t4.5 11l2 4q258 5 258 136q0 41 -36.5 69.5t-113.5 52.5q-14 3 -14 17l8 41l62 182h73l-33 -139q79 -38 115.5 -78.5t36.5 -104.5q0 -77 -42.5 -137t-115.5 -90h-204q-3 9 -3 19z" />
<glyph unicode="&#xb9;" horiz-adv-x="485" d="M68 623q0 39 4 49q101 21 110 49q7 21 18.5 110.5t18.5 186.5l19 233l-123 -32q-23 20 -23 53q116 53 244 131q17 -4 28 -11.5t13 -12.5l2 -5q-20 -62 -29.5 -132.5t-21.5 -217.5l-31 -338q25 -6 90 -6q4 -8 4 -18q0 -15 -6 -39h-317z" />
<glyph unicode="&#xba;" horiz-adv-x="698" d="M96 1128q0 132 74 222q57 73 141 115t129 42q75 0 125.5 -58t50.5 -153q0 -119 -53 -204q-36 -60 -95.5 -102t-102.5 -56t-68 -14q-81 0 -141 57t-60 151zM227 1161q0 -178 109 -178q65 0 110.5 89.5t45.5 195.5q0 80 -25 127t-76 47q-49 0 -87.5 -43t-57.5 -106.5 t-19 -131.5z" />
<glyph unicode="&#xbb;" horiz-adv-x="1030" d="M104 104l322 373l-211 406q16 28 55 32q52 -86 147.5 -211t182.5 -219l-2 -26q-296 -236 -451 -393q-15 1 -25.5 10.5t-13.5 18.5zM424 104l321 373l-210 406q16 28 55 32q52 -86 147.5 -211t182.5 -219l-2 -26q-296 -236 -451 -393q-15 1 -25.5 10.5t-13.5 18.5z" />
<glyph unicode="&#xbc;" horiz-adv-x="1337" d="M109 623q0 39 4 49q101 21 110 49q7 21 18.5 110.5t18.5 186.5l19 233l-123 -32q-23 20 -23 53q116 53 244 131q17 -4 28 -11.5t13 -12.5l2 -5q-20 -62 -29.5 -132.5t-21.5 -217.5l-31 -338q25 -6 90 -6q4 -8 4 -18q0 -15 -6 -39h-317zM238 10l424 744q44 77 194 354.5 t199 376.5q4 6 16 6q8 0 16 -6q8 -10 60 -62l-412 -725q-37 -64 -202.5 -372.5t-196.5 -376.5q-3 -6 -17 -6q-8 0 -14 6q-8 11 -18.5 21t-26.5 22t-22 18zM707 221q55 57 69 80l365 504q25 0 47 -19q-21 -102 -39 -309l-19 -201q48 0 64 37l25 56q23 0 36 -15 q-10 -36 -17.5 -90t-8.5 -57q-34 -17 -105 -17l-10 -127q23 -6 74 -6q2 -8 2 -18q0 -23 -4 -39h-287q0 33 2 49q37 6 63.5 17.5t32.5 23.5q6 11 17 100l-168 5q-48 0 -127 -7q-12 15 -12 33zM846 276h172l29 289z" />
<glyph unicode="&#xbd;" horiz-adv-x="1449" d="M109 623q0 39 4 49q101 21 110 49q7 21 18.5 110.5t18.5 186.5l19 233l-123 -32q-23 20 -23 53q116 53 244 131q17 -4 28 -11.5t13 -12.5l2 -5q-20 -62 -29.5 -132.5t-21.5 -217.5l-31 -338q25 -6 90 -6q4 -8 4 -18q0 -15 -6 -39h-317zM238 10l424 744q44 77 194 354.5 t199 376.5q4 6 16 6q8 0 16 -6q8 -10 60 -62l-412 -725q-37 -64 -202.5 -372.5t-196.5 -376.5q-3 -6 -17 -6q-8 0 -14 6q-8 11 -18.5 21t-26.5 22t-22 18zM788 35l211 237q33 37 55.5 65.5t52.5 73t46 89.5t16 88q0 46 -23.5 74t-66.5 28q-20 0 -39.5 -4t-48.5 -13.5 t-33 -10.5l-26 -123q-7 -7 -25 -7q-17 0 -28 7q-2 139 -2 155q3 11 14 17l213 65q88 0 144.5 -41.5t56.5 -130.5q0 -46 -24.5 -97.5t-48 -82t-71.5 -86.5l-205 -240h109q147 0 162 31l45 94q36 0 55 -12q-39 -92 -57 -195q-41 -18 -121 -18q-10 0 -60 1t-75 1h-217 q-9 18 -9 35z" />
<glyph unicode="&#xbe;" horiz-adv-x="1402" d="M80 647q12 60 67 109q106 -86 156 -86q62 0 99.5 63t37.5 129q0 120 -172 152l174 270h-104q-49 0 -107 -8l-18 -90q-10 -6 -27 -6q-14 0 -24 6q2 168 4 188q0 10 12 10h250q79 0 154 11q10 -5 10 -27l-176 -272q88 -32 121.5 -81.5t33.5 -121.5q0 -120 -94 -206.5 t-207 -86.5q-112 0 -190 47zM303 10l424 744q44 77 194 354.5t199 376.5q5 6 17 6q8 0 16 -6q12 -15 59 -62l-411 -725q-38 -65 -203.5 -373.5t-196.5 -375.5q-3 -6 -16 -6q-8 0 -14 6q-8 11 -19 21t-26.5 22t-22.5 18zM772 221q56 57 70 80l364 504q25 0 47 -19 q-21 -102 -39 -309l-18 -201q48 0 64 37l24 56q24 0 37 -15q-10 -36 -18.5 -90.5t-8.5 -56.5q-34 -17 -104 -17l-10 -127q23 -6 73 -6q2 -8 2 -18q0 -23 -4 -39h-286q0 33 2 49q37 6 63.5 17.5t32.5 23.5q5 8 16 100l-168 5q-48 0 -127 -7q-12 15 -12 33zM911 276h172 l29 289z" />
<glyph unicode="&#xbf;" horiz-adv-x="784" d="M104 -115q0 -76 17.5 -138.5t58 -122.5t91 -112t132.5 -124q-17 -38 -20 -52q12 -14 21.5 -20t27.5 -10q39 44 74 116.5t35 92.5q0 6 -32 31.5t-77.5 64t-91 85.5t-77.5 109t-32 123q0 52 25 97.5t62 76.5t88.5 60t97.5 48t95 41t75 38q-22 39 -56 165.5t-34 192.5 q-30 0 -94 -47t-64 -68q0 -59 17 -148t26 -112q-60 -28 -100 -49t-95 -59t-88.5 -75t-57.5 -91t-24 -113zM408 928q0 36 53 78.5t98 42.5q37 -103 78 -150q-26 -44 -61 -73t-91 -48q-34 32 -55.5 74t-21.5 76z" />
<glyph unicode="&#xc0;" horiz-adv-x="1378" d="M-55 16l4 19q35 10 58.5 20t48.5 30.5t42 41.5t43 64.5t49 88t62 123.5l491 1006q4 10 7.5 24.5t4.5 23.5l1 9l106 35l244 -1155q50 -224 80 -283q51 -6 94 -6q4 -6 4 -16q0 -23 -12 -47q-34 0 -120 3t-95 3q-140 0 -252 -16q-4 4 -4 22l4 29q83 18 115 45.5t32 75.5 q0 32 -12 88l-66 307q-85 6 -217 6q-57 0 -133.5 -3t-111.5 -3l-62 -131q-44 -93 -80.5 -198t-40.5 -163q41 -2 129 -2q2 -10 2 -24q0 -20 -8 -39q-41 0 -111.5 3t-82.5 3q-116 0 -207 -16q-6 24 -6 32zM442 631q6 0 87 -4t135 -4q120 0 196 6l-125 626zM453 1821 q31 72 96 110q83 -72 192 -147.5t177 -115.5l67 -40q0 -22 -20 -45q-36 13 -95 35.5t-196 85t-221 117.5z" />
<glyph unicode="&#xc1;" horiz-adv-x="1378" d="M-55 16l4 19q35 10 58.5 20t48.5 30.5t42 41.5t43 64.5t49 88t62 123.5l491 1006q4 10 7.5 24.5t4.5 23.5l1 9l106 35l244 -1155q50 -224 80 -283q51 -6 94 -6q4 -6 4 -16q0 -23 -12 -47q-34 0 -120 3t-95 3q-140 0 -252 -16q-4 4 -4 22l4 29q83 18 115 45.5t32 75.5 q0 32 -12 88l-66 307q-85 6 -217 6q-57 0 -133.5 -3t-111.5 -3l-62 -131q-44 -93 -80.5 -198t-40.5 -163q41 -2 129 -2q2 -10 2 -24q0 -20 -8 -39q-41 0 -111.5 3t-82.5 3q-116 0 -207 -16q-6 24 -6 32zM442 631q6 0 87 -4t135 -4q120 0 196 6l-125 626zM674 1622v6 q28 16 75 44t163.5 107.5t199.5 151.5q67 -39 94 -110q-84 -55 -211.5 -114.5t-212.5 -91.5l-86 -32q-10 10 -15.5 21.5t-6.5 17.5z" />
<glyph unicode="&#xc2;" horiz-adv-x="1378" d="M-55 16l4 19q35 10 58.5 20t48.5 30.5t42 41.5t43 64.5t49 88t62 123.5l491 1006q4 10 7.5 24.5t4.5 23.5l1 9l106 35l244 -1155q50 -224 80 -283q51 -6 94 -6q4 -6 4 -16q0 -23 -12 -47q-34 0 -120 3t-95 3q-140 0 -252 -16q-4 4 -4 22l4 29q83 18 115 45.5t32 75.5 q0 32 -12 88l-66 307q-85 6 -217 6q-57 0 -133.5 -3t-111.5 -3l-62 -131q-44 -93 -80.5 -198t-40.5 -163q41 -2 129 -2q2 -10 2 -24q0 -20 -8 -39q-41 0 -111.5 3t-82.5 3q-116 0 -207 -16q-6 24 -6 32zM442 631q6 0 87 -4t135 -4q120 0 196 6l-125 626zM489 1595 q215 184 365 338h25l172 -344q-16 -30 -45 -30l-177 204l-307 -204q-13 0 -21 9t-10 18z" />
<glyph unicode="&#xc3;" horiz-adv-x="1378" d="M-55 16l4 19q35 10 58.5 20t48.5 30.5t42 41.5t43 64.5t49 88t62 123.5l491 1006q4 10 7.5 24.5t4.5 23.5l1 9l106 35l244 -1155q50 -224 80 -283q51 -6 94 -6q4 -6 4 -16q0 -23 -12 -47q-34 0 -120 3t-95 3q-140 0 -252 -16q-4 4 -4 22l4 29q83 18 115 45.5t32 75.5 q0 32 -12 88l-66 307q-85 6 -217 6q-57 0 -133.5 -3t-111.5 -3l-62 -131q-44 -93 -80.5 -198t-40.5 -163q41 -2 129 -2q2 -10 2 -24q0 -20 -8 -39q-41 0 -111.5 3t-82.5 3q-116 0 -207 -16q-6 24 -6 32zM442 631q6 0 87 -4t135 -4q120 0 196 6l-125 626zM502 1677l119 99 q53 43 86 43q54 0 142 -36t152 -36q46 0 127 61q27 -13 29 -39l-74 -63q-5 -4 -26 -22t-29 -24t-24 -17t-27 -15t-21 -4q-49 0 -142 37t-152 37q-11 0 -23.5 -3t-21.5 -6t-23 -11t-20 -12t-22 -14.5t-20 -13.5q-12 5 -21 16t-9 23z" />
<glyph unicode="&#xc4;" horiz-adv-x="1378" d="M-55 16l4 19q35 10 58.5 20t48.5 30.5t42 41.5t43 64.5t49 88t62 123.5l491 1006q4 10 7.5 24.5t4.5 23.5l1 9l106 35l244 -1155q50 -224 80 -283q51 -6 94 -6q4 -6 4 -16q0 -23 -12 -47q-34 0 -120 3t-95 3q-140 0 -252 -16q-4 4 -4 22l4 29q83 18 115 45.5t32 75.5 q0 32 -12 88l-66 307q-85 6 -217 6q-57 0 -133.5 -3t-111.5 -3l-62 -131q-44 -93 -80.5 -198t-40.5 -163q41 -2 129 -2q2 -10 2 -24q0 -20 -8 -39q-41 0 -111.5 3t-82.5 3q-116 0 -207 -16q-6 24 -6 32zM442 631q6 0 87 -4t135 -4q120 0 196 6l-125 626zM541 1747 q25 39 55.5 63.5t83.5 42.5q31 -28 51.5 -64.5t20.5 -66.5q0 -31 -50.5 -66.5t-93.5 -35.5q-32 90 -67 127zM895 1747q25 39 55.5 63.5t83.5 42.5q31 -28 51.5 -64.5t20.5 -66.5q0 -31 -49 -66.5t-92 -35.5q-30 85 -70 127z" />
<glyph unicode="&#xc5;" horiz-adv-x="1378" d="M-55 16l4 19q35 10 58.5 20t48.5 30.5t42 41.5t43 64.5t49 88t62 123.5l491 1006q4 10 7.5 24.5t4.5 23.5l1 9l106 35l244 -1155q50 -224 80 -283q51 -6 94 -6q4 -6 4 -16q0 -23 -12 -47q-34 0 -120 3t-95 3q-140 0 -252 -16q-4 4 -4 22l4 29q83 18 115 45.5t32 75.5 q0 32 -12 88l-66 307q-85 6 -217 6q-57 0 -133.5 -3t-111.5 -3l-62 -131q-44 -93 -80.5 -198t-40.5 -163q41 -2 129 -2q2 -10 2 -24q0 -20 -8 -39q-41 0 -111.5 3t-82.5 3q-116 0 -207 -16q-6 24 -6 32zM442 631q6 0 87 -4t135 -4q120 0 196 6l-125 626zM680 1696 q0 31 9 64.5t30 70.5t52.5 67.5t80.5 53.5t109 30q60 0 95.5 -39t35.5 -100q0 -91 -82 -175t-201 -95q-60 0 -94.5 33.5t-34.5 89.5zM780 1726q0 -41 17 -65.5t49 -24.5q65 0 102 61t37 136q0 86 -65 86q-63 0 -101.5 -60.5t-38.5 -132.5z" />
<glyph unicode="&#xc6;" horiz-adv-x="1974" d="M-55 16l4 19q103 29 164 90.5t204 277.5l672 1014q-29 8 -127 8q-2 9 -2 19q0 18 8 37q38 0 107.5 -3t81.5 -3h366q83 0 254 7t185 7q17 0 22.5 -5t5.5 -16q0 -3 -10 -50.5t-25.5 -134t-25.5 -169.5q-12 -6 -33 -6q-5 0 -29 6q-2 32 -4.5 95t-5 104t-6.5 55 q-162 43 -358 43q-80 0 -131 -8q-6 -12 -10 -29.5t-6 -31t-5.5 -38t-5.5 -36.5q-19 -136 -47 -465q31 -8 153 -8q129 0 205 10q94 11 119 82q29 0 49 -13q-26 -144 -37 -323q-16 -4 -22 -4q-7 0 -15 2t-12 4l-4 2v156q-112 18 -283 18q-83 0 -161 -10l-33 -373 q-10 -108 -10 -272q49 -8 127 -8q197 0 391 55q12 19 23 39.5t23 47.5t18 41t19.5 49.5t16.5 43.5q30 0 62 -16q-29 -100 -66 -295q-8 -22 -29 -25q-82 -14 -215 -14q-72 0 -184.5 4t-128.5 4h-104q-189 0 -306 -16q-6 12 -6 26l2 25q40 10 70 25t47.5 30t30 38.5t17.5 40.5 t11 44q27 130 52 367q-114 4 -207 4q-63 0 -146 -2t-123 -2l-100 -160q-154 -248 -186 -361q41 -2 129 -2q2 -10 2 -24q0 -20 -8 -39q-41 0 -120 3t-91 3q-116 0 -207 -16q-6 24 -6 32zM580 657q122 -4 237 -4q144 0 199 2q51 522 51 744q-22 -24 -143.5 -209.5 t-232.5 -359.5z" />
<glyph unicode="&#xc7;" horiz-adv-x="1392" d="M113 580q0 176 67 345.5t179 297.5t268 206t325 78q120 0 230.5 -22t171.5 -43q12 -9 12 -19q0 -9 -10 -68t-23.5 -145t-19.5 -147q-13 -8 -37 -8q-17 0 -33 4q-12 226 -20 262q-41 42 -129 77.5t-170 35.5q-123 0 -236 -72.5t-191 -187t-124.5 -258.5t-46.5 -285 q0 -88 13.5 -169.5t45.5 -159t79.5 -135t120.5 -92t163 -34.5q102 0 214.5 72.5t217.5 208.5q18 0 33 -10t21 -20l5 -11q-6 -10 -16.5 -26.5t-38.5 -58.5t-51.5 -75t-48 -62t-35.5 -32q-185 -61 -342 -68l-21 -98q79 -38 115.5 -78.5t36.5 -104.5q0 -77 -42.5 -137 t-115.5 -90h-205q-2 6 -2 19q0 9 2 17t4 11l2 4q258 5 258 136q0 41 -36 69.5t-113 52.5q-15 3 -15 17l9 41l47 143q-156 11 -275 96t-181 221t-62 302z" />
<glyph unicode="&#xc8;" d="M39 10l2 25q50 12 83 30t50.5 45t25 47.5t15.5 55.5q42 181 72 575q8 97 17 204.5t12 148.5t6.5 89t4.5 71t1 49q0 69 -9 69q-35 6 -124 6q-5 9 -5 19q0 6 9 37q41 0 112.5 -3t83.5 -3h287q84 0 255 7t185 7q17 0 22 -5t5 -16q0 -3 -9.5 -50.5t-24.5 -134t-25 -169.5 q-14 -6 -33 -6q-7 0 -31 6q-10 231 -16 254q-158 43 -357 43q-80 0 -131 -8q-16 -36 -28 -135q-15 -106 -45 -465q27 -8 151 -8q131 0 205 10q92 10 121 82q30 0 49 -13q-29 -160 -39 -323q-16 -4 -21 -4q-7 0 -14.5 2t-11.5 4l-4 2v156q-112 18 -285 18q-88 0 -160 -10 l-32 -373q-13 -140 -13 -272q52 -8 129 -8q197 0 391 55q15 23 30 53.5t24.5 52.5t24.5 60t22 55q30 0 59 -16q-29 -105 -65 -295q-5 -22 -27 -25q-82 -14 -215 -14q-73 0 -185.5 4t-129.5 4h-103q-188 0 -307 -16q-4 16 -4 26zM426 1821q32 75 96 110q82 -72 191 -147.5 t177 -115.5l68 -40q1 -22 -22 -45q-36 13 -94.5 35.5t-195 85t-220.5 117.5z" />
<glyph unicode="&#xc9;" d="M39 10l2 25q50 12 83 30t50.5 45t25 47.5t15.5 55.5q42 181 72 575q8 97 17 204.5t12 148.5t6.5 89t4.5 71t1 49q0 69 -9 69q-35 6 -124 6q-5 9 -5 19q0 6 9 37q41 0 112.5 -3t83.5 -3h287q84 0 255 7t185 7q17 0 22 -5t5 -16q0 -3 -9.5 -50.5t-24.5 -134t-25 -169.5 q-14 -6 -33 -6q-7 0 -31 6q-10 231 -16 254q-158 43 -357 43q-80 0 -131 -8q-16 -36 -28 -135q-15 -106 -45 -465q27 -8 151 -8q131 0 205 10q92 10 121 82q30 0 49 -13q-29 -160 -39 -323q-16 -4 -21 -4q-7 0 -14.5 2t-11.5 4l-4 2v156q-112 18 -285 18q-88 0 -160 -10 l-32 -373q-13 -140 -13 -272q52 -8 129 -8q197 0 391 55q15 23 30 53.5t24.5 52.5t24.5 60t22 55q30 0 59 -16q-29 -105 -65 -295q-5 -22 -27 -25q-82 -14 -215 -14q-73 0 -185.5 4t-129.5 4h-103q-188 0 -307 -16q-4 16 -4 26zM500 1622v6q28 16 75 44t163 107.5t198 151.5 q64 -35 96 -110q-84 -55 -211.5 -114.5t-212.5 -91.5l-86 -32q-10 10 -15.5 21.5t-6.5 17.5z" />
<glyph unicode="&#xca;" d="M39 10l2 25q50 12 83 30t50.5 45t25 47.5t15.5 55.5q42 181 72 575q8 97 17 204.5t12 148.5t6.5 89t4.5 71t1 49q0 69 -9 69q-35 6 -124 6q-5 9 -5 19q0 6 9 37q41 0 112.5 -3t83.5 -3h287q84 0 255 7t185 7q17 0 22 -5t5 -16q0 -3 -9.5 -50.5t-24.5 -134t-25 -169.5 q-14 -6 -33 -6q-7 0 -31 6q-10 231 -16 254q-158 43 -357 43q-80 0 -131 -8q-16 -36 -28 -135q-15 -106 -45 -465q27 -8 151 -8q131 0 205 10q92 10 121 82q30 0 49 -13q-29 -160 -39 -323q-16 -4 -21 -4q-7 0 -14.5 2t-11.5 4l-4 2v156q-112 18 -285 18q-88 0 -160 -10 l-32 -373q-13 -140 -13 -272q52 -8 129 -8q197 0 391 55q15 23 30 53.5t24.5 52.5t24.5 60t22 55q30 0 59 -16q-29 -105 -65 -295q-5 -22 -27 -25q-82 -14 -215 -14q-73 0 -185.5 4t-129.5 4h-103q-188 0 -307 -16q-4 16 -4 26zM436 1595q217 184 367 338h24l172 -344 q-16 -30 -47 -30l-174 204l-309 -204q-12 0 -20.5 9t-10.5 18z" />
<glyph unicode="&#xcb;" d="M39 10l2 25q50 12 83 30t50.5 45t25 47.5t15.5 55.5q42 181 72 575q8 97 17 204.5t12 148.5t6.5 89t4.5 71t1 49q0 69 -9 69q-35 6 -124 6q-5 9 -5 19q0 6 9 37q41 0 112.5 -3t83.5 -3h287q84 0 255 7t185 7q17 0 22 -5t5 -16q0 -3 -9.5 -50.5t-24.5 -134t-25 -169.5 q-14 -6 -33 -6q-7 0 -31 6q-10 231 -16 254q-158 43 -357 43q-80 0 -131 -8q-16 -36 -28 -135q-15 -106 -45 -465q27 -8 151 -8q131 0 205 10q92 10 121 82q30 0 49 -13q-29 -160 -39 -323q-16 -4 -21 -4q-7 0 -14.5 2t-11.5 4l-4 2v156q-112 18 -285 18q-88 0 -160 -10 l-32 -373q-13 -140 -13 -272q52 -8 129 -8q197 0 391 55q15 23 30 53.5t24.5 52.5t24.5 60t22 55q30 0 59 -16q-29 -105 -65 -295q-5 -22 -27 -25q-82 -14 -215 -14q-73 0 -185.5 4t-129.5 4h-103q-188 0 -307 -16q-4 16 -4 26zM442 1747q25 39 56 63.5t84 42.5 q31 -28 51 -64.5t20 -66.5q0 -31 -50 -66.5t-93 -35.5q-31 88 -68 127zM797 1747q25 39 55.5 63.5t83.5 42.5q31 -28 51.5 -64.5t20.5 -66.5q0 -31 -49.5 -66.5t-92.5 -35.5q-31 86 -69 127z" />
<glyph unicode="&#xcc;" horiz-adv-x="694" d="M18 16l5 17q61 13 98.5 28t57 38.5t26.5 42.5t14 57q13 71 34.5 227.5t31.5 294.5l18 229q23 273 23 391q0 78 -15 78q-68 6 -147 6q-2 9 -2 19q0 23 8 37q44 0 145 -3t117 -3q13 0 101.5 3t132.5 3q4 -8 4 -23q0 -8 -2 -16t-4 -12l-2 -5q-80 0 -123 -6q-8 -1 -20 -55 t-26 -163.5t-26 -250.5l-27 -334q-28 -336 -28 -499q0 -62 6 -62q49 -6 190 -6q4 -8 4 -18q0 -9 -8 -37q-53 0 -150 3t-112 3q-188 0 -315 -16q-9 18 -9 32zM96 1821q27 71 94 110q83 -72 192.5 -148t177.5 -115l69 -40q0 -22 -23 -45q-36 13 -94.5 35.5t-195 85 t-220.5 117.5z" />
<glyph unicode="&#xcd;" horiz-adv-x="694" d="M18 16l5 17q61 13 98.5 28t57 38.5t26.5 42.5t14 57q13 71 34.5 227.5t31.5 294.5l18 229q23 273 23 391q0 78 -15 78q-68 6 -147 6q-2 9 -2 19q0 23 8 37q44 0 145 -3t117 -3q13 0 101.5 3t132.5 3q4 -8 4 -23q0 -8 -2 -16t-4 -12l-2 -5q-80 0 -123 -6q-8 -1 -20 -55 t-26 -163.5t-26 -250.5l-27 -334q-28 -336 -28 -499q0 -62 6 -62q49 -6 190 -6q4 -8 4 -18q0 -9 -8 -37q-53 0 -150 3t-112 3q-188 0 -315 -16q-9 18 -9 32zM317 1628q28 16 75 44t163 107.5t199 151.5q65 -38 96 -110q-84 -55 -212 -114.5t-214 -91.5l-86 -32 q-9 10 -14 21.5t-6 17.5z" />
<glyph unicode="&#xce;" horiz-adv-x="694" d="M18 16l5 17q61 13 98.5 28t57 38.5t26.5 42.5t14 57q13 71 34.5 227.5t31.5 294.5l18 229q23 273 23 391q0 78 -15 78q-68 6 -147 6q-2 9 -2 19q0 23 8 37q44 0 145 -3t117 -3q13 0 101.5 3t132.5 3q4 -8 4 -23q0 -8 -2 -16t-4 -12l-2 -5q-80 0 -123 -6q-8 -1 -20 -55 t-26 -163.5t-26 -250.5l-27 -334q-28 -336 -28 -499q0 -62 6 -62q49 -6 190 -6q4 -8 4 -18q0 -9 -8 -37q-53 0 -150 3t-112 3q-188 0 -315 -16q-9 18 -9 32zM147 1595q215 184 367 338h25l172 -344q-16 -30 -47 -30l-175 204l-309 -204q-12 0 -20 9t-10 18z" />
<glyph unicode="&#xcf;" horiz-adv-x="694" d="M18 16l5 17q61 13 98.5 28t57 38.5t26.5 42.5t14 57q13 71 34.5 227.5t31.5 294.5l18 229q23 273 23 391q0 78 -15 78q-68 6 -147 6q-2 9 -2 19q0 23 8 37q44 0 145 -3t117 -3q13 0 101.5 3t132.5 3q4 -8 4 -23q0 -8 -2 -16t-4 -12l-2 -5q-80 0 -123 -6q-8 -1 -20 -55 t-26 -163.5t-26 -250.5l-27 -334q-28 -336 -28 -499q0 -62 6 -62q49 -6 190 -6q4 -8 4 -18q0 -9 -8 -37q-53 0 -150 3t-112 3q-188 0 -315 -16q-9 18 -9 32zM147 1747q25 39 56 63.5t84 42.5q31 -28 51 -64.5t20 -66.5q0 -31 -50 -66.5t-93 -35.5q-31 88 -68 127zM502 1747 q25 39 55.5 63.5t83.5 42.5q31 -28 51.5 -64.5t20.5 -66.5q0 -31 -49.5 -66.5t-92.5 -35.5q-31 86 -69 127z" />
<glyph unicode="&#xd0;" horiz-adv-x="1509" d="M39 10l2 25q50 12 83 30t50.5 45t25 47.5t15.5 55.5q25 108 64 485q-70 0 -156 -12q-17 9 -17 25q22 48 31 90h152q30 335 30 495q0 99 -16 99q-88 0 -149 -4q-7 14 -7 26q0 20 7 27q16 1 93.5 10t145.5 16t166 13t176 6q151 0 274 -37.5t214.5 -112t141.5 -192 t50 -270.5q0 -134 -34 -264t-100 -241.5t-156.5 -197t-211.5 -134t-256 -48.5q-63 0 -157 4t-115 4q-223 0 -342 -16q-4 16 -4 26zM391 100q106 -34 254 -34q107 0 199.5 41.5t160.5 114t116.5 170t73 210.5t24.5 234q0 263 -141 422t-384 159q-119 0 -178 -10 q-10 -33 -17.5 -75.5t-17.5 -134t-16 -153.5t-21 -233q0 -4 -1 -7l-1 -3q221 0 375 16q17 -4 17 -29q-31 -39 -31 -86h-369q-43 -485 -43 -602z" />
<glyph unicode="&#xd1;" horiz-adv-x="1636" d="M31 10l2 25q48 12 80.5 30.5t51 44t27 48t15.5 55.5q23 104 60.5 390t78.5 734q-54 60 -86 76.5t-123 26.5q-4 8 -4 20q0 23 8 33q39 -2 90 -2q63 0 128 5t83 5q28 0 118.5 -114.5t219.5 -307.5q247 -368 498 -800q7 163 37.5 552.5t30.5 497.5q0 25 -3 90q-43 6 -149 6 q-6 11 -6 25q0 15 8 31q46 0 114.5 -3t82.5 -3q128 0 215 16q4 -6 4 -23l-4 -28q-48 -12 -78.5 -29t-46.5 -42t-22.5 -47.5t-10.5 -59.5q-41 -287 -131 -1293l-49 -20q-63 109 -277 443.5t-297 469.5q-70 114 -155.5 234.5t-139.5 179.5q-6 -68 -25.5 -296.5t-29 -350 t-19.5 -274.5t-10 -226q0 -41 2 -74q41 -6 146 -6q2 -8 2 -22q0 -21 -8 -33q-47 0 -120.5 3t-86.5 3q-128 0 -217 -16q-4 8 -4 26zM621 1677l118 99q53 43 86 43q54 0 142.5 -36t152.5 -36q46 0 127 61q27 -13 29 -39l-74 -63q-5 -4 -26 -22t-29 -24t-24 -17t-27 -15t-21 -4 q-49 0 -142.5 37t-152.5 37q-13 0 -26 -3t-29.5 -11.5t-22.5 -12t-27.5 -18t-23.5 -15.5q-12 5 -21 16t-9 23z" />
<glyph unicode="&#xd2;" horiz-adv-x="1529" d="M113 580q0 132 23.5 247.5t63 200t92.5 156.5t110 120t118.5 86t114.5 59t101 35t75.5 18.5t40.5 4.5q168 0 302 -84t207 -226.5t73 -313.5q0 -168 -36.5 -308.5t-93.5 -233.5t-132 -165t-146.5 -111.5t-143.5 -65t-116 -33t-70 -7.5q-169 0 -303 82.5t-207 224 t-73 314.5zM305 686q0 -119 32 -230t89 -198t145 -139.5t191 -52.5q99 0 180.5 41.5t135.5 110.5t91 162.5t53.5 195t16.5 210.5q0 90 -17.5 177.5t-54.5 167t-89 140t-125.5 96.5t-159.5 36q-121 0 -217 -63t-153.5 -167t-87.5 -229t-30 -258zM526 1821q31 72 97 110 q83 -72 192 -147.5t177 -115.5l67 -40q-1 -22 -21 -45q-36 13 -95 35.5t-196 85t-221 117.5z" />
<glyph unicode="&#xd3;" horiz-adv-x="1529" d="M113 580q0 132 23.5 247.5t63 200t92.5 156.5t110 120t118.5 86t114.5 59t101 35t75.5 18.5t40.5 4.5q168 0 302 -84t207 -226.5t73 -313.5q0 -168 -36.5 -308.5t-93.5 -233.5t-132 -165t-146.5 -111.5t-143.5 -65t-116 -33t-70 -7.5q-169 0 -303 82.5t-207 224 t-73 314.5zM305 686q0 -119 32 -230t89 -198t145 -139.5t191 -52.5q99 0 180.5 41.5t135.5 110.5t91 162.5t53.5 195t16.5 210.5q0 90 -17.5 177.5t-54.5 167t-89 140t-125.5 96.5t-159.5 36q-121 0 -217 -63t-153.5 -167t-87.5 -229t-30 -258zM670 1622v6q28 16 74.5 44 t162.5 107.5t199 151.5q65 -38 96 -110q-84 -55 -212 -114.5t-214 -91.5l-86 -32q-9 10 -14 21.5t-6 17.5z" />
<glyph unicode="&#xd4;" horiz-adv-x="1529" d="M113 580q0 132 23.5 247.5t63 200t92.5 156.5t110 120t118.5 86t114.5 59t101 35t75.5 18.5t40.5 4.5q168 0 302 -84t207 -226.5t73 -313.5q0 -168 -36.5 -308.5t-93.5 -233.5t-132 -165t-146.5 -111.5t-143.5 -65t-116 -33t-70 -7.5q-169 0 -303 82.5t-207 224 t-73 314.5zM305 686q0 -119 32 -230t89 -198t145 -139.5t191 -52.5q99 0 180.5 41.5t135.5 110.5t91 162.5t53.5 195t16.5 210.5q0 90 -17.5 177.5t-54.5 167t-89 140t-125.5 96.5t-159.5 36q-121 0 -217 -63t-153.5 -167t-87.5 -229t-30 -258zM600 1595q217 184 367 338h24 l172 -344q-16 -30 -47 -30l-174 204l-309 -204q-12 0 -20.5 9t-10.5 18z" />
<glyph unicode="&#xd5;" horiz-adv-x="1529" d="M113 580q0 132 23.5 247.5t63 200t92.5 156.5t110 120t118.5 86t114.5 59t101 35t75.5 18.5t40.5 4.5q168 0 302 -84t207 -226.5t73 -313.5q0 -168 -36.5 -308.5t-93.5 -233.5t-132 -165t-146.5 -111.5t-143.5 -65t-116 -33t-70 -7.5q-169 0 -303 82.5t-207 224 t-73 314.5zM305 686q0 -119 32 -230t89 -198t145 -139.5t191 -52.5q99 0 180.5 41.5t135.5 110.5t91 162.5t53.5 195t16.5 210.5q0 90 -17.5 177.5t-54.5 167t-89 140t-125.5 96.5t-159.5 36q-121 0 -217 -63t-153.5 -167t-87.5 -229t-30 -258zM596 1677l117 99q53 43 88 43 q52 0 140.5 -36t154.5 -36q44 0 125 61q25 -11 30 -39l-73 -63q-31 -27 -47.5 -40t-41 -27.5t-40.5 -14.5q-48 0 -142 37t-153 37q-13 0 -26 -3t-29.5 -11.5t-22.5 -12t-27.5 -18t-23.5 -15.5q-12 5 -20.5 16t-8.5 23z" />
<glyph unicode="&#xd6;" horiz-adv-x="1529" d="M113 580q0 132 23.5 247.5t63 200t92.5 156.5t110 120t118.5 86t114.5 59t101 35t75.5 18.5t40.5 4.5q168 0 302 -84t207 -226.5t73 -313.5q0 -168 -36.5 -308.5t-93.5 -233.5t-132 -165t-146.5 -111.5t-143.5 -65t-116 -33t-70 -7.5q-169 0 -303 82.5t-207 224 t-73 314.5zM305 686q0 -119 32 -230t89 -198t145 -139.5t191 -52.5q99 0 180.5 41.5t135.5 110.5t91 162.5t53.5 195t16.5 210.5q0 90 -17.5 177.5t-54.5 167t-89 140t-125.5 96.5t-159.5 36q-121 0 -217 -63t-153.5 -167t-87.5 -229t-30 -258zM600 1747q25 39 55.5 63.5 t83.5 42.5q31 -28 51.5 -64.5t20.5 -66.5q0 -31 -49 -66.5t-92 -35.5q-30 85 -70 127zM956 1747q23 38 54.5 63t85.5 43q31 -28 50 -64t19 -67t-49 -66.5t-92 -35.5q-31 88 -68 127z" />
<glyph unicode="&#xd7;" horiz-adv-x="935" d="M96 276l299 263q-99 127 -233 272q0 20 8 31q21 12 76 57l229 -293q127 110 301 289q17 0 27 -12q4 -15 9.5 -27.5t15 -30.5t14.5 -28l-303 -271q128 -160 241 -278q-4 -24 -10 -33q-30 -14 -76 -57l-235 299q-176 -156 -297 -279q-15 0 -25 12q-1 4 -41 86z" />
<glyph unicode="&#xd8;" horiz-adv-x="1529" d="M113 580q0 132 23.5 247.5t63 200t92.5 156.5t110 120t118.5 86t114.5 59t101 35t75.5 18.5t40.5 4.5q153 0 293 -80q69 123 110 203q8 8 17 8q8 0 16 -2q11 -25 58 -88l-117 -182q97 -87 151 -213t54 -270q0 -168 -36.5 -308.5t-93.5 -233.5t-132 -165t-146.5 -111.5 t-143.5 -65t-116 -33t-70 -7.5q-167 0 -297 76q-82 -133 -118 -207q-6 -6 -13 -6q-8 0 -14 4q-6 19 -22 44.5t-29 37.5l116 188q-98 83 -152 209.5t-54 274.5zM305 686q0 -249 119 -424l373 604l262 422q-115 115 -266 115q-121 0 -217 -63t-153.5 -167t-87.5 -229t-30 -258 zM489 182q110 -116 273 -116q99 0 180.5 41.5t135.5 110.5t91 162.5t53.5 195t16.5 210.5q0 246 -115 418l-233 -370q-179 -278 -402 -652z" />
<glyph unicode="&#xd9;" horiz-adv-x="1564" d="M164 1444q0 18 8 37q40 0 102 -3t76 -3q169 0 271 16q8 -12 8 -31l-4 -20q-49 -12 -80.5 -26.5t-48.5 -36t-24 -40t-13 -51.5q-27 -155 -49 -401q-3 -40 -12 -126.5t-14 -151.5t-5 -105q0 -213 92 -334t277 -121q124 0 211.5 38t142 116.5t83.5 181.5t42 250 q4 49 14.5 168t13 151.5t9 113.5t8 121.5t3 103.5t1.5 128q-41 6 -160 6q-2 11 -2 25q0 19 6 31q46 0 126 -3t95 -3q135 0 213 16q9 -13 9 -31l-4 -20q-47 -12 -80.5 -35.5t-51.5 -57t-26 -59t-15 -61.5q-38 -229 -75 -645q-27 -301 -175 -462t-413 -161q-89 0 -162 16 t-124 42.5t-90 66t-62.5 82.5t-38 96t-20 102t-5.5 105q0 70 25 416q2 36 12 170.5t16.5 236t6.5 127.5q-35 6 -115 6q-2 9 -2 19zM625 1821q31 72 96 110q83 -72 192 -147.5t177 -115.5l67 -40q0 -22 -20 -45q-36 13 -95 35.5t-196 85t-221 117.5z" />
<glyph unicode="&#xda;" horiz-adv-x="1564" d="M164 1444q0 18 8 37q40 0 102 -3t76 -3q169 0 271 16q8 -12 8 -31l-4 -20q-49 -12 -80.5 -26.5t-48.5 -36t-24 -40t-13 -51.5q-27 -155 -49 -401q-3 -40 -12 -126.5t-14 -151.5t-5 -105q0 -213 92 -334t277 -121q124 0 211.5 38t142 116.5t83.5 181.5t42 250 q4 49 14.5 168t13 151.5t9 113.5t8 121.5t3 103.5t1.5 128q-41 6 -160 6q-2 11 -2 25q0 19 6 31q46 0 126 -3t95 -3q135 0 213 16q9 -13 9 -31l-4 -20q-47 -12 -80.5 -35.5t-51.5 -57t-26 -59t-15 -61.5q-38 -229 -75 -645q-27 -301 -175 -462t-413 -161q-89 0 -162 16 t-124 42.5t-90 66t-62.5 82.5t-38 96t-20 102t-5.5 105q0 70 25 416q2 36 12 170.5t16.5 236t6.5 127.5q-35 6 -115 6q-2 9 -2 19zM768 1622v6q28 16 74.5 44t162.5 107.5t199 151.5q65 -38 96 -110q-84 -55 -212 -114.5t-214 -91.5l-86 -32q-9 10 -14 21.5t-6 17.5z" />
<glyph unicode="&#xdb;" horiz-adv-x="1564" d="M164 1444q0 18 8 37q40 0 102 -3t76 -3q169 0 271 16q8 -12 8 -31l-4 -20q-49 -12 -80.5 -26.5t-48.5 -36t-24 -40t-13 -51.5q-27 -155 -49 -401q-3 -40 -12 -126.5t-14 -151.5t-5 -105q0 -213 92 -334t277 -121q124 0 211.5 38t142 116.5t83.5 181.5t42 250 q4 49 14.5 168t13 151.5t9 113.5t8 121.5t3 103.5t1.5 128q-41 6 -160 6q-2 11 -2 25q0 19 6 31q46 0 126 -3t95 -3q135 0 213 16q9 -13 9 -31l-4 -20q-47 -12 -80.5 -35.5t-51.5 -57t-26 -59t-15 -61.5q-38 -229 -75 -645q-27 -301 -175 -462t-413 -161q-89 0 -162 16 t-124 42.5t-90 66t-62.5 82.5t-38 96t-20 102t-5.5 105q0 70 25 416q2 36 12 170.5t16.5 236t6.5 127.5q-35 6 -115 6q-2 9 -2 19zM608 1595q217 184 367 338h24l172 -344q-16 -30 -47 -30l-174 204l-309 -204q-12 0 -20.5 9t-10.5 18z" />
<glyph unicode="&#xdc;" horiz-adv-x="1564" d="M164 1444q0 18 8 37q40 0 102 -3t76 -3q169 0 271 16q8 -12 8 -31l-4 -20q-49 -12 -80.5 -26.5t-48.5 -36t-24 -40t-13 -51.5q-27 -155 -49 -401q-3 -40 -12 -126.5t-14 -151.5t-5 -105q0 -213 92 -334t277 -121q124 0 211.5 38t142 116.5t83.5 181.5t42 250 q4 49 14.5 168t13 151.5t9 113.5t8 121.5t3 103.5t1.5 128q-41 6 -160 6q-2 11 -2 25q0 19 6 31q46 0 126 -3t95 -3q135 0 213 16q9 -13 9 -31l-4 -20q-47 -12 -80.5 -35.5t-51.5 -57t-26 -59t-15 -61.5q-38 -229 -75 -645q-27 -301 -175 -462t-413 -161q-89 0 -162 16 t-124 42.5t-90 66t-62.5 82.5t-38 96t-20 102t-5.5 105q0 70 25 416q2 36 12 170.5t16.5 236t6.5 127.5q-35 6 -115 6q-2 9 -2 19zM631 1747q25 39 55.5 63.5t83.5 42.5q31 -28 51.5 -64.5t20.5 -66.5q0 -31 -50.5 -66.5t-93.5 -35.5q-32 90 -67 127zM985 1747 q25 39 55.5 63.5t83.5 42.5q31 -28 51.5 -64.5t20.5 -66.5q0 -31 -49 -66.5t-92 -35.5q-30 85 -70 127z" />
<glyph unicode="&#xdd;" horiz-adv-x="1204" d="M0 1458q0 19 8 35q6 0 42.5 -1t53.5 -1q24 0 86 5t97 5q10 0 41.5 -39t75 -111.5t86.5 -162t80.5 -206t54.5 -226.5q62 179 155 377q90 189 178 281.5t158 92.5q32 0 64 -14.5t48 -29.5l17 -15q-31 -95 -88 -154q-29 26 -46 34.5t-48 8.5q-53 0 -123 -89t-131 -224 q-73 -163 -114.5 -295t-49.5 -278q-6 -83 -6 -220q0 -30 1 -84t1 -75q83 -15 188 -15q0 -40 -4 -63q-58 0 -154 3t-116 3q-213 0 -356 -16q-4 8 -4 26l2 25q70 9 118.5 25t75.5 38.5t40 45t22 53.5q12 50 21 146t9 179q0 109 -28.5 232t-74.5 231.5t-95 198.5t-99 159 q-39 54 -73.5 73.5t-110.5 23.5q-2 8 -2 18zM631 1628q28 16 75 44t163 107.5t198 151.5q64 -35 96 -110q-84 -55 -211.5 -114.5t-213.5 -91.5l-85 -32q-10 10 -15.5 21.5t-5.5 17.5z" />
<glyph unicode="&#xde;" horiz-adv-x="1095" d="M18 16l5 17q61 13 98.5 28t57 38.5t26.5 42.5t14 57q46 253 66 522l18 229q23 276 23 391q0 78 -15 78q-68 6 -147 6q-2 9 -2 19q0 23 8 37q44 0 145 -3t117 -3q13 0 101.5 3t132.5 3q4 -8 4 -23q0 -8 -2 -16t-4 -12l-2 -5q-80 0 -123 -6q-22 -4 -47 -217q114 4 170 4 q195 0 314.5 -101.5t119.5 -291.5q0 -98 -39 -192t-105 -165.5t-161.5 -115t-200.5 -43.5q-121 0 -172 6q-6 -74 -6 -186q0 -54 6 -54q57 -6 207 -6q4 -16 4 -26q0 -9 -8 -37q-59 0 -160 3t-119 3q-188 0 -315 -16q-9 18 -9 32zM420 379q39 -4 127 -4q104 0 186.5 58 t126 149t43.5 194q0 166 -82 263.5t-221 97.5q-60 0 -117 -13z" />
<glyph unicode="&#xdf;" horiz-adv-x="1138" d="M-375 -729q19 100 82 149q61 -45 124.5 -75.5t96.5 -30.5q53 0 112 133.5t81 333.5l160 1429q11 101 43 185t72.5 138.5t91 96.5t96 64.5t89.5 36.5t69 18t38 4q119 0 213 -92t94 -219q0 -79 -22 -145t-57.5 -110t-78.5 -81.5t-85.5 -69t-78 -62.5t-57.5 -71t-22 -86 q0 -35 30 -79t75 -85t97 -90.5t97 -95.5t75 -100.5t30 -104.5q0 -129 -107.5 -216t-259.5 -87q-74 0 -169.5 22t-137.5 50l86 278q32 0 49 -14q-4 -32 -4 -125q0 -48 2 -64q16 -25 67 -48t129 -23q66 0 118 50.5t52 127.5q0 50 -28 99t-69.5 86t-90.5 80.5t-90.5 82 t-69.5 90t-28 105.5q0 56 23 105.5t60 87t81.5 73t89.5 71t82 74t60 90.5t23 111q0 112 -86 204.5t-186 92.5q-44 0 -100.5 -62t-99.5 -154t-52 -173l-153 -1417q-13 -121 -42 -221t-64 -164.5t-78 -113.5t-80.5 -74t-74.5 -40.5t-57 -19.5t-32 -4q-98 0 -228 49z" />
<glyph unicode="&#xe0;" horiz-adv-x="1099" d="M82 256q0 199 88.5 356t222.5 258q65 50 141.5 87t116.5 49.5t62 15.5q138 15 145 18l107 41q10 0 24 -14q-36 -197 -75.5 -447t-45.5 -307q-2 -18 -2 -53q0 -121 37 -121q4 0 129 43q19 -14 19 -49q-69 -29 -125.5 -60t-80 -48t-57.5 -45t-36 -29l-33 14 q-10 14 -16.5 59.5t-6.5 88.5q0 120 41 348q-48 -78 -90.5 -138.5t-107 -140.5t-135 -138t-140.5 -85q-75 13 -128.5 91.5t-53.5 205.5zM240 328q0 -95 25 -150t77 -55q46 0 116 61t136 152.5t122 207t77 216.5l34 168q-137 0 -219 -10q-51 -6 -113 -53t-119.5 -121.5 t-96.5 -185.5t-39 -230zM432 1526q24 82 109 102q63 -93 153.5 -197t149.5 -161l59 -58q-4 -22 -33 -38q-32 21 -83 57t-168.5 129t-186.5 166z" />
<glyph unicode="&#xe1;" horiz-adv-x="1099" d="M82 256q0 199 88.5 356t222.5 258q65 50 141.5 87t116.5 49.5t62 15.5q138 15 145 18l107 41q10 0 24 -14q-36 -197 -75.5 -447t-45.5 -307q-2 -18 -2 -53q0 -121 37 -121q4 0 129 43q19 -14 19 -49q-69 -29 -125.5 -60t-80 -48t-57.5 -45t-36 -29l-33 14 q-10 14 -16.5 59.5t-6.5 88.5q0 120 41 348q-48 -78 -90.5 -138.5t-107 -140.5t-135 -138t-140.5 -85q-75 13 -128.5 91.5t-53.5 205.5zM240 328q0 -95 25 -150t77 -55q46 0 116 61t136 152.5t122 207t77 216.5l34 168q-137 0 -219 -10q-51 -6 -113 -53t-119.5 -121.5 t-96.5 -185.5t-39 -230zM590 1212q9 8 24.5 23.5t61.5 62.5t88.5 94t95.5 112t92 124q87 -20 111 -102q-69 -73 -179 -161t-186 -139l-75 -52q-12 7 -20.5 16.5t-10.5 15.5z" />
<glyph unicode="&#xe2;" horiz-adv-x="1099" d="M82 256q0 199 88.5 356t222.5 258q65 50 141.5 87t116.5 49.5t62 15.5q138 15 145 18l107 41q10 0 24 -14q-36 -197 -75.5 -447t-45.5 -307q-2 -18 -2 -53q0 -121 37 -121q4 0 129 43q19 -14 19 -49q-69 -29 -125.5 -60t-80 -48t-57.5 -45t-36 -29l-33 14 q-10 14 -16.5 59.5t-6.5 88.5q0 120 41 348q-48 -78 -90.5 -138.5t-107 -140.5t-135 -138t-140.5 -85q-75 13 -128.5 91.5t-53.5 205.5zM240 328q0 -95 25 -150t77 -55q46 0 116 61t136 152.5t122 207t77 216.5l34 168q-137 0 -219 -10q-51 -6 -113 -53t-119.5 -121.5 t-96.5 -185.5t-39 -230zM403 1155q219 215 369 393h25q33 -79 77.5 -180t72.5 -162l28 -61q-22 -25 -51 -25l-176 234l-308 -234q-15 0 -24 9t-11 17z" />
<glyph unicode="&#xe3;" horiz-adv-x="1099" d="M82 256q0 199 88.5 356t222.5 258q65 50 141.5 87t116.5 49.5t62 15.5q138 15 145 18l107 41q10 0 24 -14q-36 -197 -75.5 -447t-45.5 -307q-2 -18 -2 -53q0 -121 37 -121q4 0 129 43q19 -14 19 -49q-69 -29 -125.5 -60t-80 -48t-57.5 -45t-36 -29l-33 14 q-10 14 -16.5 59.5t-6.5 88.5q0 120 41 348q-48 -78 -90.5 -138.5t-107 -140.5t-135 -138t-140.5 -85q-75 13 -128.5 91.5t-53.5 205.5zM240 328q0 -95 25 -150t77 -55q46 0 116 61t136 152.5t122 207t77 216.5l34 168q-137 0 -219 -10q-51 -6 -113 -53t-119.5 -121.5 t-96.5 -185.5t-39 -230zM408 1309l116 98q53 43 88 43q52 0 140.5 -36t154.5 -36q43 0 125 62q26 -11 31 -39l-74 -64q-5 -4 -17.5 -14.5t-18 -15l-16.5 -13.5t-17 -13t-15.5 -10t-16.5 -9t-14.5 -5t-13.5 -2q-48 0 -142 37t-153 37q-11 0 -23.5 -3t-21 -6t-23 -11 t-19.5 -11t-22 -14.5t-20 -13.5q-12 4 -20 15.5t-8 23.5z" />
<glyph unicode="&#xe4;" horiz-adv-x="1099" d="M82 256q0 199 88.5 356t222.5 258q65 50 141.5 87t116.5 49.5t62 15.5q138 15 145 18l107 41q10 0 24 -14q-36 -197 -75.5 -447t-45.5 -307q-2 -18 -2 -53q0 -121 37 -121q4 0 129 43q19 -14 19 -49q-69 -29 -125.5 -60t-80 -48t-57.5 -45t-36 -29l-33 14 q-10 14 -16.5 59.5t-6.5 88.5q0 120 41 348q-48 -78 -90.5 -138.5t-107 -140.5t-135 -138t-140.5 -85q-75 13 -128.5 91.5t-53.5 205.5zM240 328q0 -95 25 -150t77 -55q46 0 116 61t136 152.5t122 207t77 216.5l34 168q-137 0 -219 -10q-51 -6 -113 -53t-119.5 -121.5 t-96.5 -185.5t-39 -230zM440 1386q44 75 140 107q31 -28 50 -64t19 -67t-49 -66.5t-92 -35.5q-31 86 -68 126zM795 1386q25 40 55.5 64.5t83.5 42.5q31 -28 51.5 -64.5t20.5 -66.5q0 -31 -50.5 -66.5t-93.5 -35.5q-31 88 -67 126z" />
<glyph unicode="&#xe5;" horiz-adv-x="1099" d="M82 256q0 199 88.5 356t222.5 258q65 50 141.5 87t116.5 49.5t62 15.5q138 15 145 18l107 41q10 0 24 -14q-36 -197 -75.5 -447t-45.5 -307q-2 -18 -2 -53q0 -121 37 -121q4 0 129 43q19 -14 19 -49q-69 -29 -125.5 -60t-80 -48t-57.5 -45t-36 -29l-33 14 q-10 14 -16.5 59.5t-6.5 88.5q0 120 41 348q-48 -78 -90.5 -138.5t-107 -140.5t-135 -138t-140.5 -85q-75 13 -128.5 91.5t-53.5 205.5zM240 328q0 -95 25 -150t77 -55q46 0 116 61t136 152.5t122 207t77 216.5l34 168q-137 0 -219 -10q-51 -6 -113 -53t-119.5 -121.5 t-96.5 -185.5t-39 -230zM522 1255q0 39 15 82.5t45.5 87t88 76t132.5 41.5q60 0 95.5 -39t35.5 -100q0 -58 -35.5 -117t-102.5 -102t-147 -51q-58 0 -92.5 33t-34.5 89zM623 1286q0 -40 17 -65t48 -25q64 0 101.5 61.5t37.5 135.5q0 88 -65 88q-63 0 -101 -61t-38 -134z" />
<glyph unicode="&#xe6;" horiz-adv-x="1452" d="M82 256q0 199 88.5 356t222.5 258q65 50 141.5 87t116.5 49.5t62 15.5q138 15 145 18l107 41q10 0 24 -14l-31 -166q96 87 213 141q116 0 180 -44t64 -156q0 -96 -59.5 -172t-169.5 -148q-73 -50 -159 -84t-159 -45q0 -137 40.5 -223t115.5 -86q74 0 145 30.5t164 92.5 q10 -2 18 -13t9 -28l-248 -164q-64 -43 -164 -43q-123 0 -184.5 98t-61.5 254q0 55 9 107q-246 -383 -447 -459q-75 13 -128.5 91.5t-53.5 205.5zM240 328q0 -95 25 -150t77 -55q46 0 116 61t136 152.5t122 207t77 216.5l34 168q-137 0 -219 -10q-51 -6 -113 -53 t-119.5 -121.5t-96.5 -185.5t-39 -230zM870 440q134 30 246 125q131 117 131 223q0 170 -117 170q-44 0 -101.5 -78t-103 -201t-55.5 -239z" />
<glyph unicode="&#xe7;" horiz-adv-x="837" d="M92 285q0 124 27 232.5t69.5 183.5t97 136.5t108 98.5t103 62t81.5 34.5t45 9.5q29 0 182 -26q0 -9 -3.5 -31t-18.5 -60.5t-38 -64.5q-160 80 -223 80q-40 0 -85.5 -46.5t-85 -122.5t-65.5 -186.5t-26 -226.5q0 -113 43 -193.5t113 -80.5q74 0 145 30.5t162 92.5 q22 -6 29 -41l-250 -164q-1 0 -13 -6t-24.5 -11.5t-34.5 -12.5t-45 -11l-23 -100q80 -38 117 -78.5t37 -104.5q0 -77 -43 -137t-115 -90h-204q-4 6 -4 19q0 9 2 17t4 11l2 4q260 5 260 136q0 41 -36.5 69.5t-113.5 52.5q-14 2 -14 17l8 41l47 143q-73 8 -123.5 57.5 t-72 117.5t-21.5 149z" />
<glyph unicode="&#xe8;" horiz-adv-x="837" d="M88 311q0 230 126.5 430.5t342.5 300.5q116 0 180 -44t64 -156q0 -96 -60 -172t-170 -148q-73 -50 -158.5 -84t-158.5 -45q0 -137 40.5 -223t115.5 -86q74 0 145 30.5t164 92.5q9 -2 17 -13t9 -28l-247 -164q-64 -43 -164 -43q-123 0 -184.5 98t-61.5 254zM256 440 q134 30 246 125q131 117 131 223q0 170 -117 170q-44 0 -101.5 -78t-103 -201t-55.5 -239zM268 1526q24 82 109 102q63 -93 153.5 -197t149.5 -161l59 -58q-3 -22 -32 -38q-32 21 -83 57t-169 129t-187 166z" />
<glyph unicode="&#xe9;" horiz-adv-x="837" d="M88 311q0 230 126.5 430.5t342.5 300.5q116 0 180 -44t64 -156q0 -96 -60 -172t-170 -148q-73 -50 -158.5 -84t-158.5 -45q0 -137 40.5 -223t115.5 -86q74 0 145 30.5t164 92.5q9 -2 17 -13t9 -28l-247 -164q-64 -43 -164 -43q-123 0 -184.5 98t-61.5 254zM256 440 q134 30 246 125q131 117 131 223q0 170 -117 170q-44 0 -101.5 -78t-103 -201t-55.5 -239zM473 1212q25 23 65.5 63t137.5 150t160 203q84 -20 108 -102q-69 -73 -178.5 -161t-184.5 -139l-75 -52q-13 7 -21 16.5t-10 15.5z" />
<glyph unicode="&#xea;" horiz-adv-x="837" d="M88 311q0 230 126.5 430.5t342.5 300.5q116 0 180 -44t64 -156q0 -96 -60 -172t-170 -148q-73 -50 -158.5 -84t-158.5 -45q0 -137 40.5 -223t115.5 -86q74 0 145 30.5t164 92.5q9 -2 17 -13t9 -28l-247 -164q-64 -43 -164 -43q-123 0 -184.5 98t-61.5 254zM256 440 q134 30 246 125q131 117 131 223q0 170 -117 170q-44 0 -101.5 -78t-103 -201t-55.5 -239zM272 1155q219 215 369 393h25q33 -79 77.5 -180t72.5 -162l28 -61q-22 -25 -51 -25l-177 234l-307 -234q-15 0 -24 9t-11 17z" />
<glyph unicode="&#xeb;" horiz-adv-x="837" d="M88 311q0 230 126.5 430.5t342.5 300.5q116 0 180 -44t64 -156q0 -96 -60 -172t-170 -148q-73 -50 -158.5 -84t-158.5 -45q0 -137 40.5 -223t115.5 -86q74 0 145 30.5t164 92.5q9 -2 17 -13t9 -28l-247 -164q-64 -43 -164 -43q-123 0 -184.5 98t-61.5 254zM256 440 q134 30 246 125q131 117 131 223q0 170 -117 170q-44 0 -101.5 -78t-103 -201t-55.5 -239zM319 1386q25 39 56 64t84 43q31 -28 51 -64.5t20 -66.5q0 -31 -50 -66.5t-93 -35.5q-31 86 -68 126zM674 1386q25 40 55.5 64.5t83.5 42.5q31 -28 51.5 -64.5t20.5 -66.5 q0 -31 -49.5 -66.5t-92.5 -35.5q-30 85 -69 126z" />
<glyph unicode="&#xec;" horiz-adv-x="555" d="M23 1526q24 82 108 102q63 -93 153.5 -197t149.5 -161l60 -58q-4 -22 -33 -38q-32 21 -83 57t-168.5 129t-186.5 166zM80 844q73 40 164 105.5t135 107.5l37 -10q2 -25 2 -66q0 -119 -24 -270.5t-48 -282t-24 -199.5q0 -33 5.5 -54.5t12 -28.5t12.5 -7q15 0 131 43 q19 -14 19 -49q-104 -43 -172.5 -84.5t-132.5 -97.5l-33 14q-17 35 -17 125q0 99 48.5 335.5t48.5 328.5q0 84 -37 84q-9 0 -45.5 -14.5t-63.5 -28.5q-18 18 -18 49z" />
<glyph unicode="&#xed;" horiz-adv-x="555" d="M80 844q73 40 164 105.5t135 107.5l37 -10q2 -25 2 -66q0 -119 -24 -270.5t-48 -282t-24 -199.5q0 -33 5.5 -54.5t12 -28.5t12.5 -7q15 0 131 43q19 -14 19 -49q-104 -43 -172.5 -84.5t-132.5 -97.5l-33 14q-17 35 -17 125q0 99 48.5 335.5t48.5 328.5q0 84 -37 84 q-9 0 -45.5 -14.5t-63.5 -28.5q-18 18 -18 49zM211 1212q9 8 24.5 23.5t61.5 62.5t88.5 94t95.5 112t92 124q85 -20 109 -102q-69 -73 -178.5 -161t-184.5 -139l-75 -52q-13 7 -21 16.5t-10 15.5z" />
<glyph unicode="&#xee;" horiz-adv-x="557" d="M66 1155q218 215 368 393h25q33 -79 77.5 -180t72.5 -162l28 -61q-22 -25 -53 -25l-174 234l-310 -234q-15 0 -23.5 9t-9.5 17zM80 844q73 40 164 105.5t135 107.5l37 -10q2 -25 2 -66q0 -119 -24 -270.5t-48 -282t-24 -199.5q0 -33 5.5 -54.5t12 -28.5t12.5 -7 q15 0 131 43q19 -14 19 -49q-104 -43 -172.5 -84.5t-132.5 -97.5l-33 14q-17 35 -17 125q0 99 48.5 335.5t48.5 328.5q0 84 -37 84q-9 0 -45.5 -14.5t-63.5 -28.5q-18 18 -18 49z" />
<glyph unicode="&#xef;" horiz-adv-x="555" d="M72 1386q23 39 54.5 64t84.5 43q31 -28 50.5 -64t19.5 -67t-49.5 -66.5t-92.5 -35.5q-31 88 -67 126zM80 844q73 40 164 105.5t135 107.5l37 -10q2 -25 2 -66q0 -119 -24 -270.5t-48 -282t-24 -199.5q0 -33 5.5 -54.5t12 -28.5t12.5 -7q15 0 131 43q19 -14 19 -49 q-104 -43 -172.5 -84.5t-132.5 -97.5l-33 14q-17 35 -17 125q0 99 48.5 335.5t48.5 328.5q0 84 -37 84q-9 0 -45.5 -14.5t-63.5 -28.5q-18 18 -18 49zM399 1386q44 75 140 107q31 -28 50 -64t19 -67t-49 -66.5t-92 -35.5q-31 86 -68 126z" />
<glyph unicode="&#xf0;" horiz-adv-x="1042" d="M92 344q0 237 121 408q50 71 114 129.5t121 91.5t102.5 51t70.5 18q39 0 84 -20q-64 176 -213 324l-252 -123q-15 11 -23 32.5t-9 37.5l-1 16l219 94q-116 101 -268 184q0 20 14.5 44.5t26.5 29.5q195 -90 331 -201l267 129q32 -23 32 -82l-231 -104q169 -155 260.5 -348 t91.5 -402q0 -207 -92 -377q-37 -69 -89 -125.5t-102 -91t-101 -58t-87.5 -33t-58.5 -9.5q-133 0 -230.5 105t-97.5 280zM270 399q0 -348 211 -348q82 0 151.5 84.5t106.5 209.5t37 255q0 150 -24 258q-63 90 -201 90q-82 0 -148 -84t-99.5 -208.5t-33.5 -256.5z" />
<glyph unicode="&#xf1;" horiz-adv-x="1138" d="M49 844q70 38 154.5 102.5t132.5 110.5l35 -10q8 -55 8 -129q0 -62 -6.5 -133t-19 -166.5t-15.5 -126.5q211 470 448 550q195 0 195 -264q0 -100 -35 -296t-35 -230q0 -59 7.5 -80.5t33.5 -21.5q29 0 103 32q18 -18 18 -49q-98 -39 -161.5 -78t-149.5 -104l-33 14 q0 130 23 277t46 268t23 186q0 99 -24.5 141t-73.5 42q-61 0 -151.5 -99.5t-166.5 -255t-92 -293.5l-26 -241l-156 -31l76 559q16 132 16 187q0 133 -53 133q-12 0 -96 -43q-7 6 -16 23.5t-9 25.5zM385 1262l117 98q53 43 88 43q52 0 141 -35t154 -35q10 0 21.5 3t19.5 6 t22 11t20 12t22 14.5t20 13.5q28 -12 30 -39l-73 -62q-6 -5 -19.5 -16.5t-20.5 -17t-18.5 -14.5t-19.5 -14t-17.5 -10.5t-17.5 -7.5t-16 -2q-48 0 -142 37t-153 37q-7 0 -14.5 -1t-15.5 -3.5t-13.5 -4.5t-15 -7t-13.5 -7t-14.5 -9.5t-13 -9t-14.5 -10t-13 -9.5 q-12 5 -21.5 16t-9.5 23z" />
<glyph unicode="&#xf2;" horiz-adv-x="1042" d="M92 344q0 226 121 408q49 73 117 132.5t131 91.5t112.5 49t75.5 17q130 0 215.5 -107t85.5 -282q0 -207 -92 -377q-37 -69 -89 -125.5t-102 -91t-101 -58t-87.5 -33t-58.5 -9.5q-133 0 -230.5 105t-97.5 280zM270 399q0 -348 211 -348q82 0 152 84.5t107.5 210 t37.5 254.5q0 161 -48.5 254.5t-147.5 93.5q-90 0 -163 -84t-111 -209t-38 -256zM358 1526q24 82 109 102q63 -93 153.5 -197t149.5 -161l59 -58q-3 -22 -32 -38q-32 21 -83 57t-169 129t-187 166z" />
<glyph unicode="&#xf3;" horiz-adv-x="1042" d="M92 344q0 226 121 408q49 73 117 132.5t131 91.5t112.5 49t75.5 17q130 0 215.5 -107t85.5 -282q0 -207 -92 -377q-37 -69 -89 -125.5t-102 -91t-101 -58t-87.5 -33t-58.5 -9.5q-133 0 -230.5 105t-97.5 280zM270 399q0 -348 211 -348q82 0 152 84.5t107.5 210 t37.5 254.5q0 161 -48.5 254.5t-147.5 93.5q-90 0 -163 -84t-111 -209t-38 -256zM516 1212q25 23 65.5 63t137.5 150t160 203q86 -19 110 -102q-69 -73 -179 -161t-186 -139l-75 -52q-12 7 -20.5 16.5t-10.5 15.5z" />
<glyph unicode="&#xf4;" horiz-adv-x="1042" d="M92 344q0 226 121 408q49 73 117 132.5t131 91.5t112.5 49t75.5 17q130 0 215.5 -107t85.5 -282q0 -207 -92 -377q-37 -69 -89 -125.5t-102 -91t-101 -58t-87.5 -33t-58.5 -9.5q-133 0 -230.5 105t-97.5 280zM270 399q0 -348 211 -348q82 0 152 84.5t107.5 210 t37.5 254.5q0 161 -48.5 254.5t-147.5 93.5q-90 0 -163 -84t-111 -209t-38 -256zM360 1155q219 215 369 393h25q33 -79 77.5 -180t72.5 -162l28 -61q-22 -25 -53 -25l-174 234l-310 -234q-15 0 -23.5 9t-9.5 17z" />
<glyph unicode="&#xf5;" horiz-adv-x="1042" d="M92 344q0 226 121 408q49 73 117 132.5t131 91.5t112.5 49t75.5 17q130 0 215.5 -107t85.5 -282q0 -207 -92 -377q-37 -69 -89 -125.5t-102 -91t-101 -58t-87.5 -33t-58.5 -9.5q-133 0 -230.5 105t-97.5 280zM270 399q0 -348 211 -348q82 0 152 84.5t107.5 210 t37.5 254.5q0 161 -48.5 254.5t-147.5 93.5q-90 0 -163 -84t-111 -209t-38 -256zM346 1262l119 98q53 43 86 43q54 0 142.5 -35t152.5 -35q7 0 15.5 1.5t15.5 3.5t16.5 7t15.5 8t17 9.5t15.5 9.5l16.5 11l15 10q26 -13 28 -39l-73 -62q-6 -5 -22.5 -19t-24 -20t-21 -16 t-22 -14.5t-19 -8.5t-18.5 -4q-49 0 -142.5 37t-152.5 37q-22 0 -46.5 -10t-40.5 -20.5t-42 -30.5q-12 5 -21.5 16t-9.5 23z" />
<glyph unicode="&#xf6;" horiz-adv-x="1042" d="M92 344q0 226 121 408q49 73 117 132.5t131 91.5t112.5 49t75.5 17q130 0 215.5 -107t85.5 -282q0 -207 -92 -377q-37 -69 -89 -125.5t-102 -91t-101 -58t-87.5 -33t-58.5 -9.5q-133 0 -230.5 105t-97.5 280zM270 399q0 -348 211 -348q82 0 152 84.5t107.5 210 t37.5 254.5q0 161 -48.5 254.5t-147.5 93.5q-90 0 -163 -84t-111 -209t-38 -256zM393 1386q25 40 55.5 64.5t83.5 42.5q31 -28 51.5 -64.5t20.5 -66.5q0 -31 -50 -66.5t-93 -35.5q-31 86 -68 126zM748 1386q25 40 55.5 64.5t83.5 42.5q31 -28 51 -64.5t20 -66.5 q0 -31 -49 -66.5t-92 -35.5q-30 85 -69 126z" />
<glyph unicode="&#xf7;" horiz-adv-x="1064" d="M113 500q0 -11 3 -19t6 -10l3 -2q174 16 348 16h447q4 13 9.5 33t10.5 35.5t12 30.5q0 11 -3 19t-6 11l-3 2q-173 -18 -350 -18h-445q-15 -51 -32 -98zM383 260q41 77 133 111q31 -28 51.5 -65.5t20.5 -69.5q0 -31 -48 -69t-89 -38q-31 83 -68 131zM449 827 q45 77 133 109q32 -27 51.5 -64.5t19.5 -68.5q0 -33 -47.5 -71t-89.5 -38q-29 88 -67 133z" />
<glyph unicode="&#xf8;" horiz-adv-x="1042" d="M39 -59l123 159q-70 98 -70 244q0 226 121 408q49 73 117 132.5t131 91.5t112.5 49t75.5 17q98 0 176 -65q65 95 111 172q6 4 14 4q11 0 19 -8q7 -27 39 -80l-123 -162q65 -105 65 -250q0 -207 -92 -377q-37 -69 -89 -125.5t-102 -91t-101 -58t-87.5 -33t-58.5 -9.5 q-113 0 -197 72q-57 -83 -114 -176q-5 -2 -13 -2q-12 0 -20 8q-10 37 -37 80zM270 399q0 -87 11 -143q108 135 220.5 283.5t170.5 229.5l59 81q-55 98 -149 98q-90 0 -163 -84t-111 -209t-38 -256zM311 154q51 -103 170 -103q82 0 152 84.5t107.5 210t37.5 254.5 q0 73 -14 148q-224 -284 -453 -594z" />
<glyph unicode="&#xf9;" horiz-adv-x="1130" d="M72 844q146 106 266 213l37 -10q8 -66 8 -107q0 -90 -39 -317.5t-39 -288.5q0 -29 0.5 -47.5t5 -53t13 -55.5t26.5 -38t43 -17q72 0 165 114.5t168 281t103 317.5l33 174l152 24q-1 -7 -24.5 -141t-43 -250.5t-37.5 -237t-18 -151.5q0 -115 27 -115q21 0 131 43 q18 -11 18 -49q-67 -27 -119.5 -57.5t-83 -54t-84.5 -70.5l-32 14q-13 44 -13 125q0 181 43 426q-46 -115 -108 -222t-152 -203t-182 -132q-81 0 -135 66t-54 198q0 109 38 326t38 303q-5 0 -27 -10t-53.5 -25.5t-46.5 -21.5q-9 7 -15 19.5t-7 21.5zM358 1526q24 82 109 102 q63 -93 153.5 -197t149.5 -161l59 -58q-3 -22 -32 -38q-32 21 -83 57t-169 129t-187 166z" />
<glyph unicode="&#xfa;" horiz-adv-x="1130" d="M72 844q146 106 266 213l37 -10q8 -66 8 -107q0 -90 -39 -317.5t-39 -288.5q0 -29 0.5 -47.5t5 -53t13 -55.5t26.5 -38t43 -17q72 0 165 114.5t168 281t103 317.5l33 174l152 24q-1 -7 -24.5 -141t-43 -250.5t-37.5 -237t-18 -151.5q0 -115 27 -115q21 0 131 43 q18 -11 18 -49q-67 -27 -119.5 -57.5t-83 -54t-84.5 -70.5l-32 14q-13 44 -13 125q0 181 43 426q-46 -115 -108 -222t-152 -203t-182 -132q-81 0 -135 66t-54 198q0 109 38 326t38 303q-5 0 -27 -10t-53.5 -25.5t-46.5 -21.5q-9 7 -15 19.5t-7 21.5zM535 1212q25 23 65.5 63 t137.5 150t161 203q85 -20 109 -102q-69 -73 -179.5 -161t-186.5 -139l-75 -52q-12 7 -20 16.5t-10 15.5z" />
<glyph unicode="&#xfb;" horiz-adv-x="1130" d="M72 844q146 106 266 213l37 -10q8 -66 8 -107q0 -90 -39 -317.5t-39 -288.5q0 -29 0.5 -47.5t5 -53t13 -55.5t26.5 -38t43 -17q72 0 165 114.5t168 281t103 317.5l33 174l152 24q-1 -7 -24.5 -141t-43 -250.5t-37.5 -237t-18 -151.5q0 -115 27 -115q21 0 131 43 q18 -11 18 -49q-67 -27 -119.5 -57.5t-83 -54t-84.5 -70.5l-32 14q-13 44 -13 125q0 181 43 426q-46 -115 -108 -222t-152 -203t-182 -132q-81 0 -135 66t-54 198q0 109 38 326t38 303q-5 0 -27 -10t-53.5 -25.5t-46.5 -21.5q-9 7 -15 19.5t-7 21.5zM360 1155 q219 215 369 393h25q33 -79 77.5 -180t72.5 -162l28 -61q-22 -25 -53 -25l-174 234l-310 -234q-15 0 -23.5 9t-9.5 17z" />
<glyph unicode="&#xfc;" horiz-adv-x="1130" d="M72 844q146 106 266 213l37 -10q8 -66 8 -107q0 -90 -39 -317.5t-39 -288.5q0 -29 0.5 -47.5t5 -53t13 -55.5t26.5 -38t43 -17q72 0 165 114.5t168 281t103 317.5l33 174l152 24q-1 -7 -24.5 -141t-43 -250.5t-37.5 -237t-18 -151.5q0 -115 27 -115q21 0 131 43 q18 -11 18 -49q-67 -27 -119.5 -57.5t-83 -54t-84.5 -70.5l-32 14q-13 44 -13 125q0 181 43 426q-46 -115 -108 -222t-152 -203t-182 -132q-81 0 -135 66t-54 198q0 109 38 326t38 303q-5 0 -27 -10t-53.5 -25.5t-46.5 -21.5q-9 7 -15 19.5t-7 21.5zM379 1386 q25 40 55.5 64.5t83.5 42.5q31 -28 51.5 -64.5t20.5 -66.5q0 -31 -49 -66.5t-92 -35.5q-30 83 -70 126zM735 1386q23 39 54.5 64t84.5 43q31 -28 50.5 -64t19.5 -67t-49 -66.5t-92 -35.5q-31 86 -68 126z" />
<glyph unicode="&#xfd;" horiz-adv-x="858" d="M-424 -614q6 34 33 55q56 -29 82 -29q70 0 154.5 42t169.5 114t154.5 142t139.5 151q-72 533 -81 591q-61 388 -115 392q-3 0 -7.5 -2.5t-11 -7t-12.5 -9.5t-14.5 -13t-14.5 -13.5t-15.5 -15t-14.5 -13.5q-29 9 -33 41q119 143 205 256l36 -2q60 -98 107 -363t94 -688 q118 165 190 358.5t72 340.5q0 79 -26 120t-76 70q58 112 139 152q94 -48 94 -162q0 -186 -98 -455t-287 -518q-166 -217 -323 -359.5t-361 -281.5q-8 2 -33.5 18.5t-67.5 42.5t-79 46zM391 1212q25 23 65.5 63t137.5 150t160 203q84 -20 108 -102q-69 -73 -178.5 -161 t-184.5 -139l-75 -52q-13 7 -21 16.5t-10 15.5z" />
<glyph unicode="&#xfe;" horiz-adv-x="1091" d="M-109 -713l3 25q84 10 115.5 42.5t45.5 96.5q20 89 53.5 295.5t55.5 382.5l123 995q5 43 14 110t14.5 111t11 93t8.5 82t3 51q0 43 -14.5 62t-47.5 22l-129 6q-6 24 -6 25q0 7 1.5 13.5t3.5 9.5l1 3q104 15 173.5 30.5t177.5 51.5q17 0 24 -18q-31 -203 -160 -1176 q219 368 441 442q92 -12 151.5 -102t59.5 -221q0 -119 -25 -221.5t-65.5 -174t-92.5 -129.5t-104 -93t-102.5 -59t-85 -33t-54.5 -9h-192q-74 -526 -74 -600q0 -66 17 -66q49 -4 208 -4q7 -17 7 -35q0 -20 -7 -32h-315q-130 0 -229 -8q-9 15 -9 32zM305 125 q43 -7 110.5 -12.5t110 -7t56.5 -1.5q64 0 126.5 74t103 200t40.5 263q0 108 -34.5 173t-94.5 65q-58 0 -134.5 -69.5t-142 -175t-94.5 -206.5q-36 -169 -47 -303z" />
<glyph unicode="&#xff;" horiz-adv-x="858" d="M-424 -614q6 34 33 55q56 -29 82 -29q70 0 154.5 42t169.5 114t154.5 142t139.5 151q-72 533 -81 591q-61 388 -115 392q-3 0 -7.5 -2.5t-11 -7t-12.5 -9.5t-14.5 -13t-14.5 -13.5t-15.5 -15t-14.5 -13.5q-29 9 -33 41q119 143 205 256l36 -2q60 -98 107 -363t94 -688 q118 165 190 358.5t72 340.5q0 79 -26 120t-76 70q58 112 139 152q94 -48 94 -162q0 -186 -98 -455t-287 -518q-166 -217 -323 -359.5t-361 -281.5q-8 2 -33.5 18.5t-67.5 42.5t-79 46zM262 1386q25 40 55.5 64.5t83.5 42.5q31 -28 51.5 -64.5t20.5 -66.5q0 -31 -50 -66.5 t-93 -35.5q-31 86 -68 126zM616 1386q25 39 56 64t84 43q31 -28 51 -64.5t20 -66.5q0 -31 -49 -66.5t-92 -35.5q-30 83 -70 126z" />
<glyph unicode="&#x152;" horiz-adv-x="2007" d="M113 580q0 132 23.5 247t63 199.5t92.5 155t110 118t118.5 84.5t114.5 57.5t101 34t75.5 17.5t40.5 4q38 0 182.5 -11t200.5 -11h221q83 0 253.5 7t184.5 7q29 0 29 -21q0 -3 -10 -50.5t-25.5 -134t-25.5 -169.5q-12 -6 -33 -6q-5 0 -29 6q-2 32 -4.5 95t-5 104t-6.5 55 q-162 43 -359 43q-80 0 -131 -8q-7 -16 -11.5 -35.5t-8.5 -54t-6 -45.5q-19 -136 -47 -465q31 -8 153 -8q129 0 205 10q94 11 119 82q29 0 49 -13q-26 -144 -37 -323q-16 -4 -22 -4q-7 0 -15 2t-12 4l-4 2v156q-113 18 -283 18q-84 0 -162 -10l-32 -373q-11 -118 -11 -272 q49 -8 127 -8q198 0 392 55q12 19 23 39.5t23 47.5t18 41t19.5 49.5t16.5 43.5q29 0 61 -16q-14 -47 -25 -93.5t-16 -70.5t-13 -70.5t-11 -60.5q-8 -22 -29 -25q-82 -14 -215 -14q-72 0 -184.5 4t-128.5 4h-105q-74 -1 -244 -16t-182 -15q-170 0 -303.5 80t-206.5 219 t-73 312zM305 686q0 -119 32 -230t89 -198t145 -139.5t191 -52.5q106 0 196 49q15 30 31 98q39 171 70 575q8 94 17 204t12 150t6.5 90t4.5 74.5t1 53.5q-102 39 -307 39q-121 0 -217 -62.5t-153.5 -166t-87.5 -227.5t-30 -257z" />
<glyph unicode="&#x153;" horiz-adv-x="1521" d="M92 344q0 226 121 408q49 73 117 132.5t131 91.5t112.5 49t75.5 17q99 0 176 -66.5t107 -182.5q125 163 307 249q116 0 180 -44t64 -156q0 -95 -59.5 -170t-170.5 -150q-152 -104 -317 -129q0 -136 41 -222.5t115 -86.5t146 31t163 92q23 -3 26 -41l-247 -164 q-8 -6 -26 -15t-57 -18.5t-81 -9.5q-93 0 -151 57t-81 154q-46 -56 -103.5 -100t-108 -66.5t-89.5 -33.5t-63 -11q-133 0 -230.5 105t-97.5 280zM270 399q0 -348 211 -348q82 0 152 84.5t107.5 210t37.5 254.5q0 161 -48.5 254.5t-147.5 93.5q-90 0 -163 -84t-111 -209 t-38 -256zM940 440q126 29 246 125q61 47 96 105t35 118q0 170 -119 170q-44 0 -101.5 -78t-102.5 -201t-54 -239z" />
<glyph unicode="&#x2c6;" horiz-adv-x="858" d="M270 1155q219 215 369 393h25q33 -79 77.5 -180t72.5 -162l28 -61q-23 -25 -54 -25l-174 234l-309 -234q-15 0 -23.5 9t-9.5 17z" />
<glyph unicode="&#x2dc;" horiz-adv-x="1247" d="M360 1262l117 98q53 43 88 43q53 0 142 -35t153 -35q10 0 21.5 3t19.5 6t22 11t20 12t22 14.5t20 13.5q29 -12 31 -39l-74 -62q-6 -5 -19.5 -16.5t-20.5 -17t-18.5 -14.5t-19.5 -14t-17.5 -10.5t-17.5 -7.5t-16 -2q-48 0 -142 37t-153 37q-7 0 -14.5 -1t-15.5 -3.5 t-13.5 -4.5t-15 -7t-13.5 -7t-14.5 -9.5t-13 -9t-14.5 -10t-13 -9.5q-12 5 -21.5 16t-9.5 23z" />
<glyph unicode="&#x2000;" horiz-adv-x="991" />
<glyph unicode="&#x2001;" horiz-adv-x="1982" />
<glyph unicode="&#x2002;" horiz-adv-x="991" />
<glyph unicode="&#x2003;" horiz-adv-x="1982" />
<glyph unicode="&#x2004;" horiz-adv-x="660" />
<glyph unicode="&#x2005;" horiz-adv-x="495" />
<glyph unicode="&#x2006;" horiz-adv-x="330" />
<glyph unicode="&#x2007;" horiz-adv-x="330" />
<glyph unicode="&#x2008;" horiz-adv-x="247" />
<glyph unicode="&#x2009;" horiz-adv-x="396" />
<glyph unicode="&#x200a;" horiz-adv-x="110" />
<glyph unicode="&#x2010;" horiz-adv-x="710" d="M49 465q22 49 35 98h293q124 0 252 19q16 -8 16 -33q-29 -57 -37 -96h-291q-123 0 -251 -19q-17 8 -17 31z" />
<glyph unicode="&#x2011;" horiz-adv-x="710" d="M49 465q22 49 35 98h293q124 0 252 19q16 -8 16 -33q-29 -57 -37 -96h-291q-123 0 -251 -19q-17 8 -17 31z" />
<glyph unicode="&#x2012;" horiz-adv-x="710" d="M49 465q22 49 35 98h293q124 0 252 19q16 -8 16 -33q-29 -57 -37 -96h-291q-123 0 -251 -19q-17 8 -17 31z" />
<glyph unicode="&#x2013;" horiz-adv-x="1294" d="M49 459q22 49 35 98h555q337 0 573 18q17 -3 17 -32q-30 -56 -35 -99h-561q-331 0 -567 -16q-17 8 -17 31z" />
<glyph unicode="&#x2014;" horiz-adv-x="2129" d="M49 459q22 49 35 98h981q588 0 985 18q16 -3 16 -32q-26 -47 -34 -99h-973q-594 0 -993 -16q-17 8 -17 31z" />
<glyph unicode="&#x2018;" horiz-adv-x="313" d="M82 1370q0 78 68.5 188.5t152.5 194.5q33 -11 39 -35q-41 -54 -76 -122t-35 -111q0 -54 86 -148q-33 -48 -68.5 -77.5t-90.5 -45.5q-42 55 -59 89t-17 67z" />
<glyph unicode="&#x2019;" horiz-adv-x="354" d="M96 1245q39 52 74 121t35 111q0 58 -84 147q64 98 158 123q41 -51 58 -86t17 -70q0 -77 -68.5 -187t-152.5 -194q-14 3 -25 13t-12 22z" />
<glyph unicode="&#x201a;" horiz-adv-x="376" d="M8 -276q41 53 75 121.5t34 111.5q0 55 -84 147q32 47 68 77t89 46q43 -55 60.5 -88.5t17.5 -66.5q0 -78 -68.5 -188.5t-152.5 -194.5q-36 11 -39 35z" />
<glyph unicode="&#x201c;" horiz-adv-x="622" d="M82 1370q0 78 68.5 188.5t152.5 194.5q33 -11 39 -35q-41 -54 -76 -122t-35 -111q0 -54 86 -148q-33 -48 -68.5 -77.5t-90.5 -45.5q-42 55 -59 89t-17 67zM391 1370q0 78 68.5 188.5t152.5 194.5q34 -11 37 -35q-40 -55 -74 -122.5t-34 -110.5q0 -56 84 -148 q-61 -94 -158 -123q-42 53 -59 88t-17 68z" />
<glyph unicode="&#x201d;" horiz-adv-x="663" d="M96 1245q39 52 74 121t35 111q0 58 -84 147q64 98 158 123q41 -51 58 -86t17 -70q0 -77 -68.5 -187t-152.5 -194q-14 3 -25 13t-12 22zM403 1245q40 50 75.5 120t35.5 112q0 56 -86 147q33 49 69.5 79t90.5 44q41 -53 58.5 -87.5t17.5 -68.5q0 -77 -69 -187t-153 -194 q-14 3 -25 13t-14 22z" />
<glyph unicode="&#x201e;" horiz-adv-x="686" d="M8 -276q41 53 75 121.5t34 111.5q0 55 -84 147q32 47 68 77t89 46q43 -55 60.5 -88.5t17.5 -66.5q0 -78 -68.5 -188.5t-152.5 -194.5q-36 11 -39 35zM317 -276q41 55 75 122.5t34 110.5q0 55 -84 147q61 94 158 123q42 -53 58.5 -87.5t16.5 -67.5q0 -78 -68.5 -188.5 t-152.5 -194.5q-34 11 -37 35z" />
<glyph unicode="&#x2022;" horiz-adv-x="866" d="M205 596q51 90 119.5 148t177.5 98q71 -66 115.5 -149t44.5 -150q0 -45 -50 -102t-122.5 -97.5t-131.5 -40.5q-35 99 -69.5 169t-83.5 124z" />
<glyph unicode="&#x2026;" horiz-adv-x="1169" d="M33 104q26 44 60 73t89 50q36 -34 58 -75t22 -76q0 -34 -53.5 -76.5t-99.5 -42.5q-33 96 -76 147zM442 104q25 44 59.5 73t90.5 50q36 -34 58 -75t22 -76q0 -34 -53.5 -76.5t-100.5 -42.5q-33 96 -76 147zM852 104q26 44 60 73t89 50q36 -34 58 -75t22 -76 q0 -34 -53.5 -76.5t-99.5 -42.5q-33 96 -76 147z" />
<glyph unicode="&#x202f;" horiz-adv-x="396" />
<glyph unicode="&#x2039;" horiz-adv-x="710" d="M109 494l4 28q287 225 450 393q15 -2 25.5 -11.5t13.5 -17.5l4 -9l-321 -375l209 -404q-17 -30 -54 -32q-56 91 -151 215t-180 213z" />
<glyph unicode="&#x203a;" horiz-adv-x="710" d="M104 104l322 373l-211 406q16 28 55 32q52 -86 147.5 -211t182.5 -219l-2 -26q-296 -236 -451 -393q-15 1 -25.5 10.5t-13.5 18.5z" />
<glyph unicode="&#x205f;" horiz-adv-x="495" />
<glyph unicode="&#x20ac;" horiz-adv-x="946" d="M55 352q21 44 27 72h252q229 0 360 12q15 -4 15 -24q-25 -45 -27 -70h-287q-155 0 -327 -14q-13 8 -13 24zM106 565q23 40 27 72h285q215 0 330 12q12 -4 12 -24q-26 -53 -27 -70h-354q-118 0 -258 -14q-15 8 -15 24zM176 285q0 57 6 110l158 2v-39q0 -113 42 -193.5 t110 -80.5q74 0 144.5 31t156.5 92q21 -6 28 -41l-243 -164q-64 -43 -162 -43q-61 0 -108 28t-75 75t-42.5 103.5t-14.5 119.5zM223 590q29 84 74 156.5t93.5 119.5t98 83t93 55.5t72 28.5t40.5 9q56 0 122 -18t97 -37q-26 -125 -43 -225q-11 -8 -24 -8q-15 0 -23 4 q0 29 -14 155q-26 27 -76 42.5t-82 15.5q-84 0 -163 -107.5t-119 -271.5z" />
<glyph unicode="&#x25fc;" horiz-adv-x="1044" d="M0 0v1044h1044v-1044h-1044z" />
</font>
</defs>
</svg>
